/* XPM */
static const char *panelgroup_xpm[] = {
/* width height ncolors chars_per_pixel */
"32 32 88 1",
/* colors */
"  c #000000",
". c #006687",
"X c #00002B",
"o c #003445",
"O c #000017",
"+ c #000042",
"@ c #00006D",
"# c #0000EE",
"$ c #009CCF",
"% c #002F3E",
"& c #00161D",
"* c #003141",
"= c #000034",
"- c #00005F",
"; c #003A4E",
": c #003344",
"> c #0003D6",
", c #001A23",
"< c #00000C",
"1 c #0000CC",
"2 c #006789",
"3 c #0000F7",
"4 c #0082AD",
"5 c #00698C",
"6 c #00255E",
"7 c #00AFE8",
"8 c #005B78",
"9 c #008FBD",
"0 c #00006B",
"q c #006688",
"w c #009ACD",
"e c #002D3C",
"r c #001992",
"t c #000046",
"y c #0000DB",
"u c #00AEE7",
"i c #000032",
"p c #002835",
"a c #00005D",
"s c #000088",
"d c #00759B",
"f c #00212B",
"g c #003142",
"h c #00009F",
"j c #000035",
"k c #00779E",
"l c #00004C",
"z c #000C10",
"x c #00007A",
"c c #005976",
"v c #00003B",
"b c #0000FB",
"n c #00A6DC",
"m c #000E13",
"M c #0000E7",
"N c #00007D",
"B c #0000FE",
"V c #005A9A",
"C c #002937",
"Z c #00002A",
"A c #000055",
"S c #001897",
"D c #00002D",
"F c #000A86",
"G c #0000F0",
"H c #00384A",
"J c #00001C",
"K c #FFFFFF",
"L c #00C0FF",
"P c #00004A",
"I c #0090C0",
"U c #0000F6",
"Y c #003C50",
"T c #00008C",
"R c #00232F",
"E c #000039",
"W c #00A4DA",
"Q c #00008F",
"! c #000185",
"~ c #003749",
"^ c #0000E5",
"/ c #000011",
"( c #0084AF",
") c #00BFFE",
"_ c #0000FC",
"` c #000053",
"' c #0000FF",
"] c None",
/* pixels */
"]]]]]]]]]]]]]]]]]]]]]]]]]]]]]]]]",
"]]]]]]]]]]]]]]]]]]]]]]]]]]]]]]]]",
"]]]]]]]]]]]]]]]]]]]]]]]]]]]]]]]]",
"]]]]]]]]]]]]]]]]]]]]]]]]]]]]]]]]",
"]]]]]]]]]]]]]]]]]]]]]]]]]]]]]]]]",
"]]]]]]]]]]]]]]]]]]]]]]]]]]]]]]]]",
"]]]]]]]]]]]]]]]]]]]]]]]]]]]]]]]]",
"]]]]]]]]]]]]]]]]]]]]]]]]]]]]]]]]",
"]]]]]]]]]]]]]]]]]]]]]]]]]]]]]]]]",
"]DPPPPPPPPPPPPPPPPPPP]]]]]]]]]]]",
"]]h''''''''''''''''''1+]]]]]]]]]",
"]]]T''''''''''''''''''yt]]]]]]]]",
"]]]]xB'''''''''''''''''Ml]]]]]]]",
"]]]]]0b'''''''''''''''''GA]]]]]]",
"]]]]]]aU'''''''''''''''''3-]]]]]",
"]]]]]]]`#'''''''''''''''''_@]]]]",
"]]]]]]]]P^''''''''''''''''''N]]]",
"]&8qqqqq.6>''''''''''''''''''Q]]",
"]];uLLLLLLVrSSSSSSSSSSF!ssssss=]",
"]]]~WLLLLLLLLLLLLLLLLLL5]]]]]]]]",
"]]]]:wLLLLLLLLLLLLLLLLLLk]]]]]]]",
"]]]]]]9LLLLLLLLLLLLLLLLLL(]]]]]]",
"]]]]]]]4LLLLLLLLLLLLLLLLLLI]]]]]",
"]]]]]]]]dLLLLLLLLLLLLLLLLLL$o]]]",
"]]]]]]]]]2LLLLLLLLLLLLLLLLLLn~]]",
"]]]]]]]]]]c)LLLLLLLLLLLLLLLLL7Y]",
"]]]]]]]]]]]oHHHHHHHHHHHHHHHHHH:]",
"]]]]]]]]]]]]]]]]]]]]]]]]]]]]]]]]",
"]]]]]]]]]]]]]]]]]]]]]]]]]]]]]]]]",
"]]]]]]]]]]]]]]]]]]]]]]]]]]]]]]]]",
"]]]]]]]]]]]]]]]]]]]]]]]]]]]]]]]]",
"]]]]]]]]]]]]]]]]]]]]]]]]]]]]]]]]"
};
