/* XPM */
static const char *point_xpm[] = {
/* width height ncolors chars_per_pixel */
"32 32 37 1",
/* colors */
"  c #000000",
". c #00BAF7",
"X c #001217",
"o c #001017",
"O c #000D10",
"+ c #001F2A",
"@ c #0085B1",
"# c #00B9F6",
"$ c #001116",
"% c #002C3A",
"& c #000C0F",
"* c #002936",
"= c #00090B",
"- c #001F28",
"; c #001D28",
": c #0085B2",
"> c #00080A",
", c #002A38",
"< c #001117",
"1 c #00B2ED",
"2 c #0087B5",
"3 c #000A0D",
"4 c #007297",
"5 c #00749A",
"6 c #00202A",
"7 c #001016",
"8 c #00090C",
"9 c #00ACE5",
"0 c #00141C",
"q c #FFFFFF",
"w c #000608",
"e c #00C0FF",
"r c #000F15",
"t c #00506A",
"y c #00749B",
"u c #00070A",
"i c None",
/* pixels */
"iiiiiiiiiiiiiiiiiiiiiiiiiiiiiiii",
"iiiiiiiiiiiiiiiiiiiiiiiiiiiiiiii",
"iiiiiiiiiiiiiiiiiiiiiiiiiiiiiiii",
"iiiiiiiiiiiiiiiiiiiiiiiiiiiiiiii",
"iiiiiiiiiiiiiiiiiiiiiiiiiiiiiiii",
"iiiiiiiiiiiiiiiiiiiiiiiiiiiiiiii",
"iiiiiiiiiiiiiiiiiiiiiiiiiiiiiiii",
"iiiiiiiiiiiiiiiiiiiiiiiiiiiiiiii",
"iiiiiii iiiiiiiiiiiiiii iiiiiiii",
"iiiiiiii iiiiiiiiiiiii iiiiiiiii",
"iiiiiiiii iiiiiiiiiii iiiiiiiiii",
"iiiiiiiiii iiiiiiiii iiiiiiiiiii",
"iiiiiiiiiii iii-<ii iiiiiiiiiiii",
"iiiiiiiiiiii >,#:$ iiiiiiiiiiiii",
"iiiiiiiiiiiii*#ee@7iiiiiiiiiiiii",
"iiiiiiiiiiii%.eeee2<iiiiiiiiiiii",
"iiiiiiiiiii>9eeeeeet8iiiiiiiiiii",
"iiiiiiiiiiii61eeeeyXiiiiiiiiiiii",
"iiiiiiiiiiiii;1ee4riiiiiiiiiiiii",
"iiiiiiiiiiii i+15o iiiiiiiiiiiii",
"iiiiiiiiiii iii0$ii iiiiiiiiiiii",
"iiiiiiiiii iiiiiiiii iiiiiiiiiii",
"iiiiiiiii iiiiiiiiiii iiiiiiiiii",
"iiiiiiii iiiiiiiiiiiii iiiiiiiii",
"iiiiiii iiiiiiiiiiiiiii iiiiiiii",
"iiiiiiiiiiiiiiiiiiiiiiiiiiiiiiii",
"iiiiiiiiiiiiiiiiiiiiiiiiiiiiiiii",
"iiiiiiiiiiiiiiiiiiiiiiiiiiiiiiii",
"iiiiiiiiiiiiiiiiiiiiiiiiiiiiiiii",
"iiiiiiiiiiiiiiiiiiiiiiiiiiiiiiii",
"iiiiiiiiiiiiiiiiiiiiiiiiiiiiiiii",
"iiiiiiiiiiiiiiiiiiiiiiiiiiiiiiii"
};
