/* XPM */
static const char *sailcut_xpm[] = {
/* width height ncolors chars_per_pixel */
"32 32 369 2",
/* colors */
"   c #000000",
" . c #7E7EAA",
" X c #DFDFE8",
" o c #ADADAD",
" O c #8A8AB9",
" + c #383883",
" @ c #9D9DC5",
" # c #B8B8C5",
" $ c #7B7B9D",
" % c #8888B7",
" & c #8B8BB0",
" * c #9B9BC3",
" = c #9E9EBC",
" - c #AEAECF",
" ; c #4C4C86",
" : c #7474A0",
" > c #9C9CBA",
" , c #4A4A84",
" < c #A5A5A5",
" 1 c #B0B0BD",
" 2 c #40408E",
" 3 c #6B6BA1",
" 4 c #59598C",
" 5 c #CCCCDF",
" 6 c #7A7AA9",
" 7 c #0D0D73",
" 8 c #4D4D94",
" 9 c #F2F2F7",
" 0 c #9090AE",
" q c #6B6B8D",
" w c #7878A7",
" e c #ABABAE",
" r c #363684",
" t c #B1B1CB",
" y c #B4B4C4",
" u c #43438A",
" i c #2E2E7C",
" p c #9393BE",
" a c #6E6E9D",
" s c #2C2C7A",
" d c #7C7CAE",
" f c #8F8FBA",
" g c #525292",
" h c #9292B3",
" j c #55558B",
" k c #C8C8DE",
" l c #474791",
" z c #B5B5BE",
" x c #EAEAF2",
" c c #ADADCA",
" v c #73739B",
" b c #5B5B94",
" n c #ACACBF",
" m c #5A5A89",
" M c #6767A3",
" N c #F7F7F8",
" B c #A5A5C2",
" V c #63639F",
" C c #7E7E9F",
" Z c #7676AB",
" A c #9E9EC5",
" S c #5F5F9B",
" D c #8686AA",
" F c #71719C",
" G c #E4E4EF",
" H c #BDBDCC",
" J c #2B2B75",
" K c #ABABB7",
" L c #7979A7",
" P c #6161A0",
" I c #9797A0",
" U c #4C4C92",
" Y c #DFDFE0",
" T c #A8A8AA",
" R c #333380",
" E c #5B5B9A",
" W c #B6B6BB",
" Q c #595998",
" ! c #D9D9DA",
" ~ c #C1C1D3",
" ^ c #7F7FB0",
" / c #D2D2DD",
" ( c #707094",
" ) c #7D7DAE",
" _ c #404086",
" ` c #D0D0DB",
" ' c #B8B8D4",
" ] c #3C3C82",
" [ c #272774",
" { c #6A6A8E",
" } c #62629A",
" | c #7575A6",
".  c #202077",
".. c #EDEDF4",
".X c #333383",
".o c #CBCBCC",
".O c #7373A4",
".+ c #B3B3C5",
".@ c #5E5E96",
".# c #9999BC",
".$ c #FEFEFE",
".% c #C1C1D6",
".& c #ACACC8",
".* c #FCFCFC",
".= c #FAFAFA",
".- c #8080AA",
".; c #535395",
".: c #F8F8F8",
".> c #7B7BAF",
"., c #F6F6F6",
".< c #828298",
".1 c #F4F4F4",
".2 c #9F9FC5",
".3 c #DFDFE6",
".4 c #9595A4",
".5 c #8D8DB0",
".6 c #F2F2F2",
".7 c #B8B8C3",
".8 c #3B3B7A",
".9 c #36367F",
".0 c #D6D6E7",
".q c #D9D9E0",
".w c #9C9CB8",
".e c #ECECEC",
".r c #EAEAEA",
".t c #484880",
".y c #8080AD",
".u c #E8E8E8",
".i c #E6E6E6",
".p c #E4E4E4",
".a c #B7B7CF",
".s c #E2E2E2",
".d c #7878A5",
".f c #F0F0F3",
".g c #A9A9AA",
".h c #DEDEDE",
".j c #9999C2",
".k c #DCDCDC",
".l c #6F6FA6",
".z c #9797C0",
".x c #DADADA",
".c c #D8D8D8",
".v c #ABABC3",
".b c #BBBBD6",
".n c #9696B5",
".m c #59598D",
".M c #44447F",
".N c #D4D4D4",
".B c #6A6A97",
".V c #CFCFD9",
".C c #525290",
".Z c #D2D2D2",
".A c #CACADE",
".S c #D0D0D0",
".D c #CECECE",
".F c #8989B2",
".G c #C9C9D3",
".H c #CCCCCC",
".J c #47478F",
".K c #C7C7D1",
".L c #6F6FA9",
".P c #CACACA",
".I c #B5B5BC",
".U c #C8C8C8",
".Y c #C6C6C6",
".T c #6E6E9E",
".R c #565697",
".E c #7E7EB1",
".W c #C4C4C4",
".Q c #545495",
".! c #9494B6",
".~ c #7C7CAF",
".^ c #C2C2C2",
"./ c #A5A5C0",
".( c #C0C0C0",
".) c #D0D0D3",
"._ c #63639D",
".` c #9E9EC3",
".' c #BCBCBC",
".] c #BABABA",
".[ c #626292",
".{ c #35357D",
".} c #454590",
".| c #B8B8B8",
"X  c #484889",
"X. c #7070A3",
"XX c #C4C4C7",
"Xo c #6F6F98",
"XO c #B2B2B2",
"X+ c #D2D2D8",
"X@ c #B0B0B0",
"X# c #AEAEAE",
"X$ c #646497",
"X% c #8F8FAA",
"X& c #AAAAAA",
"X* c #9F9FBD",
"X= c #A8A8A8",
"X- c #9D9DBB",
"X; c #48488C",
"X: c #ADADCE",
"X> c #31317C",
"X, c #A2A2A2",
"X< c #B2B2B5",
"X1 c #9A9AAE",
"X2 c #2D2D78",
"X3 c #A3A3C4",
"X4 c #7E7EA3",
"X5 c #292974",
"X6 c #393987",
"X7 c #4C4C93",
"X8 c #0A0A70",
"X9 c #7272AB",
"X0 c #5D5D9D",
"Xq c #DDDDDF",
"Xw c #5B5B9B",
"Xe c #1C1C71",
"Xr c #8181B3",
"Xt c #7F7FB1",
"Xy c #5A5A90",
"Xu c #BFBFD2",
"Xi c #D5D5D7",
"Xp c #000066",
"Xa c #404087",
"Xs c #73738E",
"Xd c #C0C0C9",
"Xf c #B9B9CC",
"Xg c #4F4F8F",
"Xh c #4A4A94",
"Xj c #656594",
"Xk c #A5A5B5",
"Xl c #DADAE9",
"Xz c #7878A0",
"Xx c #0E0E63",
"Xc c #7373A5",
"Xv c #9999BD",
"Xb c #57579A",
"Xn c #000069",
"Xm c #9B9BAB",
"XM c #29297A",
"XN c #F6F6F7",
"XB c #F4F4F5",
"XV c #000055",
"XC c #7878A3",
"XZ c #000080",
"XA c #7C7C93",
"XS c #EEEEEF",
"XD c #B4B4C0",
"XF c #C1C1DA",
"XG c #454588",
"XH c #00006C",
"XJ c #9898B5",
"XK c #BBBBD4",
"XL c #6666A5",
"XP c #9999AC",
"XI c #A6A6C6",
"XU c #9191B8",
"XY c #6C6C97",
"XT c #545490",
"XR c #27277B",
"XE c #4F4F95",
"XW c #8F8FB6",
"XQ c #E2E2E3",
"X! c #50508C",
"X~ c #9090AD",
"X^ c #9E9EBE",
"X/ c #C4C4D6",
"X( c #5A5A99",
"X) c #9595BF",
"X_ c #585897",
"X` c #6E6E9C",
"X' c #B1B1B6",
"X] c #9191BB",
"X[ c #D2D2D3",
"X{ c #DDDDEB",
"X} c #B8B8CA",
"X| c #8B8BB5",
"o  c #CECECF",
"o. c #DCDCE0",
"oX c #626290",
"oo c #5A5A9C",
"oO c #FFFFFF",
"o+ c #FDFDFD",
"o@ c #6B6BA6",
"o# c #FBFBFB",
"o$ c #F9F9F9",
"o% c #F7F7F7",
"o& c #7A7AAE",
"o* c #7D7DA7",
"o= c #686899",
"o- c #F5F5F5",
"o; c #515189",
"o: c #9191AA",
"o> c #61619C",
"o, c #F1F1F1",
"o< c #8F8FA8",
"o1 c #373780",
"o2 c #EFEFEF",
"o3 c #8D8DA6",
"o4 c #787898",
"o5 c #202070",
"o6 c #EDEDED",
"o7 c #33337C",
"o8 c #EBEBEB",
"o9 c #9696BC",
"o0 c #595994",
"oq c #E9E9E9",
"ow c #E7E7E7",
"oe c #6A6A9E",
"or c #525297",
"ot c #E5E5E5",
"oy c #E3E3E3",
"ou c #A6A6BB",
"oi c #E1E1E1",
"op c #242477",
"oa c #0F0F69",
"os c #5F5F9D",
"od c #DFDFDF",
"of c #BABABE",
"og c #DDDDDD",
"oh c #DBDBDB",
"oj c #D9D9D9",
"ok c #8181B1",
"ol c #5F5F89",
"oz c #9494BD",
"ox c #171774",
"oc c #D7D7D7",
"ov c #A7A7C9",
"ob c #2D2D79",
"on c #D5D5D5",
"om c #D0D0DA",
"oM c #696996",
"oN c #848496",
"oB c #A4A4BC",
"oV c #F1F1F7",
"oC c #CFCFCF",
"oZ c #626299",
"oA c #CACAD4",
"oS c #CDCDCD",
"oD c #7575A5",
"oF c #5D5D9E",
"oG c #484890",
"oH c #CBCBCB",
"oJ c #8E8EA3",
"oK c #C9C9C9",
"oL c #8181B4",
"oP c #C7C7C7",
"oI c #8A8A9F",
"oU c #E7E7ED",
"oY c #C5C5C5",
"oT c #C0C0CA",
"oR c #7B7BAE",
"oE c #C1C1C1",
"oW c #7C7CA5",
"oQ c #BFBFBF",
"o! c #4F4F90",
"o~ c #7D7D9C",
"o^ c #BDBDBD",
"o/ c #B0B0CE",
"o( c #4C4C83",
"o) c #B7B7B7",
"o_ c #D4D4E4",
"o` c #D7D7DD",
"o' c #B5B5B5",
"o] c #555599",
"o[ c #B3B3B3",
"o{ c #6E6E97",
"o} c #16166F",
"o| c #BBBBD2",
"O  c None",
/* pixels */
"O O O O O O O O O O O O O O O O O O O O O O O O O O O O O O O O ",
"O O O O O O O O O O O O O O O O O .0O O O O O O O O O O O O O O ",
"O O O O O O O O O O O O O O O O .zoO.2O O O O O O O O O O O O O ",
"O O O O O O O O O O O O O O O O X{oOX:O O O O O O O O O O O O O ",
"O O O O O O O O O O O O O O O  *oOoO 'O O O O O O O O O O O O O ",
"O O O O O O O O O O O O O O O  GoOoO.bO O O O O O O O O O O O O ",
"O O O O O O O O O O O O O O  AoOoOoOX)O O O O O O O O O O O O O ",
"O O O O O O O O O O O O O O  xoOoO..orO O O O O O O O O O O O O ",
"O O O O O O O O O O O O O .`o#.$ 9.>.jO  GO O O O O O O O O O O ",
"O O O O O O O O O O O O O oU.:.AO  ^oV 8oOo_O O O O O O O O O O ",
"O O O O O O O O O O O O o9 cO O .~ 9oOXb.$oOovO O O O O O O O O ",
"O O O O O O O O O O O O O O O o/ N.*oOoFo$o+ @o@O O O O O O O O ",
"O O O O O O O O O O O O Xv.aXS.1o%o$ 5O .1.fO  k -O O O O O O O ",
"O O O O O O O O O O O X^oq.eo2o,.1o%Xtoro2 f )o#oO pO O O O O O ",
"O O O O O O O O O O .OXQowoq.eo2o,.%o& Z.FO .3.,.=.2.}O O O O O ",
"O O O O O O O O O O  Hoi.powoq.eX/O XKokO .qo6o,o-O XFO O O O O ",
"O O O O O O O O O  &.k.hoi.pow BO  t.6X].!.p.u.eo|O XNXlO O O O ",
"O O O O O O O O O .)oj.koAX-O O  ~o6o2X| >odoy `O XI.1.: OO O O ",
"O O O O O O O O  DXJ.5 LO O X*o.ow.rXuO  y.x.vO .yo8o2 XO  %O O ",
"O O O O O O O O O O o* h.+ogod.sotomO  uXd.-O  =.s.i.rX3O XBXrO ",
"O O O O O O O X$.7oC.Z.Noc.xogodXq 3.#X;O  aoTojogoi.VO .&.6ozO ",
"O O O O O O O  z.P.HoC.Z.Noc.xX+ |O o`O XzoH.S.N.c.KO XWoq /O O ",
"O O O O O O o:.WoP.P.HoC.Z.N.wO oD.GXfO .I.YoHoC nO  . Y.pXUO O ",
"O O O O O XYoQ.^.WoP.P.oou.TO .n !og./O o^oEXkX`O XJocohX}O O O ",
"O O O O O X'.'oQofX%X4O O oW #on.cXi wo~XmoMO X`XD.D.ZoBO O O O ",
"O O O O .m $XoO O O  FX~XXoS.S.ZX[.dO  ;O .BXPoEoYoK 0O O O O O ",
"O O O O O O o{ Co< W.^oY.U.PoSo XCO O O .4o[o).'X1o=O O O O O O ",
"O O O  ( eXOo'.|.]o^.(.^oY.U 1 :O O O .<X&X#oJ.[O O O O O O O O ",
"O O  m.g oX@XOo'.|.]o^.( KXzO O O O O oN {O O O O O O O O O O O ",
"O O  IX=X& oX@XOo'X<o3 vO O O O O O O O O O O O O O O O O O O O ",
"O XAX, <X= ToIo4oXO O O O O O O O O O O O O O O O O O O O O O O ",
".8Xs qolO O O O O O O O O O O O O O O O O O O O O O O O O O O O "
};
