/* XPM */
static const char *panel_xpm[] = {
/* width height ncolors chars_per_pixel */
"32 32 44 1",
/* colors */
"  c #000000",
". c #00002B",
"X c #0000C0",
"o c #000042",
"O c #0000AF",
"+ c #000045",
"@ c #0000DA",
"# c #00009B",
"$ c #00001D",
"% c #00009E",
"& c #000076",
"* c #000037",
"= c #000023",
"- c #00004E",
"; c #000079",
": c #0000CF",
"> c #0000AD",
", c #00002F",
"< c #00005D",
"1 c #000088",
"2 c #000049",
"3 c #000035",
"4 c #0000CD",
"5 c #000010",
"6 c #0000E7",
"7 c #000013",
"8 c #00003E",
"9 c #0000FE",
"0 c #000016",
"q c #000041",
"w c #000044",
"e c #0000DC",
"r c #FFFFFF",
"t c #000089",
"y c #00004A",
"u c #00008C",
"i c #000078",
"p c #000025",
"a c #000050",
"s c #00003C",
"d c #0000BD",
"f c #0000E8",
"g c #0000FF",
"h c None",
/* pixels */
"hhhhhhhhhhhhhhhhhhhhhhhhhhhhhhhh",
"hhhhhhhhhhhhhhhhhhhhhhhhhhhhhhhh",
"hhhhhhhhhhhhhhhhhhhhhhhhhhhhhhhh",
"hhhhhhhhhhhhhhhhhhhhhhhhhhhhhhhh",
"hhhhhhhhhhhhhhhhhhhhhhhhhhhhhhhh",
"hhhhhhhhhhhhhhhhhhhhhhhhhhhhhhhh",
"hhhhhhhhhhhhhhhhhhhhhhhhhhhhhhhh",
"hhhhhhhhhhhhhhhhhhhhhhhhhhhhhhhh",
"hhhhhhhhhhhhhhhhhhhhhhhhhhhhhhhh",
"hhhhhhhhhhhhhhhhhhhhhhhhhhhhhhhh",
"hhhhhhhhhhhhhhhhhhhhhhhhhhhhhhhh",
"h$i111111111111111111<hhhhhhhhhh",
"hh-6ggggggggggggggggg9;hhhhhhhhh",
"hhh2@gggggggggggggggggguhhhhhhhh",
"hhhhw4gggggggggggggggggg%hhhhhhh",
"hhhhhhdggggggggggggggggggOhhhhhh",
"hhhhhhh>ggggggggggggggggggXhhhhh",
"hhhhhhhh#gggggggggggggggggg:+hhh",
"hhhhhhhhhtgggggggggggggggggge2hh",
"hhhhhhhhhh&9gggggggggggggggggfah",
"hhhhhhhhhhh+yyyyyyyyyyyyyyyyyywh",
"hhhhhhhhhhhhhhhhhhhhhhhhhhhhhhhh",
"hhhhhhhhhhhhhhhhhhhhhhhhhhhhhhhh",
"hhhhhhhhhhhhhhhhhhhhhhhhhhhhhhhh",
"hhhhhhhhhhhhhhhhhhhhhhhhhhhhhhhh",
"hhhhhhhhhhhhhhhhhhhhhhhhhhhhhhhh",
"hhhhhhhhhhhhhhhhhhhhhhhhhhhhhhhh",
"hhhhhhhhhhhhhhhhhhhhhhhhhhhhhhhh",
"hhhhhhhhhhhhhhhhhhhhhhhhhhhhhhhh",
"hhhhhhhhhhhhhhhhhhhhhhhhhhhhhhhh",
"hhhhhhhhhhhhhhhhhhhhhhhhhhhhhhhh",
"hhhhhhhhhhhhhhhhhhhhhhhhhhhhhhhh"
};
