/* XPM */
static const char *sailcut_xpm[] = {
/* width height ncolors chars_per_pixel */
"32 32 370 2",
/* colors */
"   c None",
" . c #515195",
" X c #BCBCC9",
" o c #67679A",
" O c #7777AD",
" + c #ADADAD",
" @ c #9090AB",
" # c #ABABAB",
" $ c #60609D",
" % c #C8C8D8",
" & c #9E9EBC",
" * c #EEEEF0",
" = c #6F6FA5",
" - c #32327D",
" ; c #72729E",
" : c #A5A5A5",
" > c #6D6DA3",
" , c #30307B",
" < c #D5D5DE",
" 1 c #00006D",
" 2 c #DFDFEB",
" 3 c #4D4D94",
" 4 c #7676A5",
" 5 c #616197",
" 6 c #A1A1B8",
" 7 c #B1B1CB",
" 8 c #7474A3",
" 9 c #8484B6",
" 0 c #8282B4",
" q c #737398",
" w c #464683",
" e c #2E2E7C",
" r c #7F7FA7",
" t c #D2D2D4",
" y c #15156A",
" u c #A2A2C6",
" i c #E2E2E7",
" p c #CACAE0",
" a c #505090",
" s c #9090B1",
" d c #666695",
" f c #7676A8",
" g c #0C0C6B",
" h c #B7B7C0",
" j c #8787B2",
" k c #4A4A8A",
" l c #303081",
" z c #58589B",
" x c #8B8BA2",
" c c #ABABC8",
" v c #9292B6",
" b c #7A7AAF",
" n c #F5F5F6",
" m c #E0E0E8",
" M c #9494A4",
" N c #8C8CB0",
" B c #3A3A7A",
" V c #E4E4EF",
" C c #BDBDCC",
" Z c #C0C0C5",
" A c #6B6B96",
" S c #E3E3E4",
" D c #4E4E94",
" F c #7979A7",
" G c #8C8CB3",
" H c #525284",
" J c #7070A8",
" K c #4B4B87",
" L c #333380",
" P c #DBDBDC",
" I c #8383B4",
" U c #B1B1C0",
" Y c #D7D7D8",
" T c #58588D",
" R c #9393B3",
" E c #9494AA",
" W c #222279",
" Q c #8A8AB4",
" ! c #7272AD",
" ~ c #CDCDCE",
" ^ c #DADAE8",
" / c #38387E",
" ( c #8989A9",
" ) c #59599B",
" _ c #FEFEFE",
" ` c #9797BA",
" ' c #FCFCFC",
" ] c #5A5A92",
" [ c #88889E",
" { c #FAFAFA",
" } c #F8F8F8",
" | c #E3E3EA",
".  c #8E8EBB",
".. c #F6F6F6",
".X c #6F6F8C",
".o c #F4F4F4",
".O c #6A6A91",
".+ c #62629D",
".@ c #B2B2D1",
".# c #F2F2F2",
".$ c #B0B0CF",
".% c #F0F0F0",
".& c #8686B3",
".* c #EEEEEE",
".= c #ECECEC",
".- c #57579C",
".; c #EAEAEA",
".: c #70709A",
".> c #D5D5DC",
"., c #E8E8E8",
".< c #E6E6E6",
".1 c #14146E",
".2 c #ACACB7",
".3 c #E4E4E4",
".4 c #F4F4F7",
".5 c #A2A2C1",
".6 c #E2E2E2",
".7 c #E0E0E0",
".8 c #9B9BC4",
".9 c #DEDEDE",
".0 c #09096D",
".q c #A7A7A8",
".w c #DCDCDC",
".e c #9797C0",
".r c #DADADA",
".t c #45458A",
".y c #737396",
".u c #D8D8D8",
".i c #9393BC",
".p c #9696B5",
".a c #D6D6D6",
".s c #B1B1B5",
".d c #414186",
".f c #D2D2D2",
".g c #D0D0D0",
".h c #B3B3CE",
".j c #8E8EAD",
".k c #CECECE",
".l c #39397E",
".z c #CACACA",
".x c #5A5A9B",
".c c #8585AE",
".v c #C8C8C8",
".b c #5E5E8B",
".n c #C6C6C6",
".m c #8181AA",
".M c #2C2C7B",
".N c #9191BD",
".B c #545495",
".V c #9494B6",
".C c #57578E",
".Z c #3F3F87",
".A c #6767A1",
".S c #C2C2C2",
".D c #C0C0C0",
".F c #101070",
".G c #9393AB",
".H c #BEBEBE",
".J c #A1A1BC",
".K c #BCBCBC",
".L c #7F7F94",
".P c #8C8CAE",
".I c #9C9CC1",
".U c #BABABA",
".Y c #0A0A6A",
".T c #5A5A9E",
".R c #B8B8B8",
".E c #4B4B82",
".W c #5E5E8E",
".Q c #313179",
".! c #B1B1BB",
".~ c #B4B4B4",
".^ c #D1D1E1",
"./ c #B2B2B2",
".( c #6A6A9D",
".) c #525296",
"._ c #6D6D96",
".` c #BABAD1",
".' c #B0B0B0",
".] c #505094",
".[ c #7676AC",
".{ c #7C7C9E",
".} c #8C8CB1",
".| c #AAAAAA",
"X  c #8787B6",
"X. c #C7C7D7",
"XX c #353580",
"Xo c #A8A8A8",
"XO c #8B8BA6",
"X+ c #73739F",
"X@ c #8989A4",
"X# c #31317C",
"X$ c #D6D6DF",
"X% c #595996",
"X& c #444488",
"X* c #A2A2A2",
"X= c #BDBDCD",
"X- c #9090B8",
"X; c #F3F3F8",
"X: c #393987",
"X> c #141466",
"X, c #A1A1C2",
"X< c #4C4C93",
"X1 c #3A3A7E",
"X2 c #222277",
"X3 c #B8B8BE",
"X4 c #333381",
"X5 c #5E5E94",
"X6 c #1C1C71",
"X7 c #575797",
"X8 c #58588E",
"X9 c #000066",
"X0 c #A5A5C9",
"Xq c #9090BB",
"Xw c #B6B6D3",
"Xe c #64649D",
"Xr c #8C8CB7",
"Xt c #525288",
"Xy c #B7B7CA",
"Xu c #656594",
"Xi c #202078",
"Xp c #A3A3B3",
"Xa c #8787A8",
"Xs c #6F6FA1",
"Xd c #57579A",
"Xf c #5A5A93",
"Xg c #9595B9",
"Xh c #8080AB",
"Xj c #6B6B9D",
"Xk c #D0D0DF",
"Xl c #29297A",
"Xz c #F6F6F7",
"Xx c #000055",
"Xc c #9D9DC4",
"Xv c #60609C",
"Xb c #F0F0F1",
"Xn c #000080",
"Xm c #B6B6C2",
"XM c #C1C1DA",
"XN c #5A5A96",
"XB c #757596",
"XV c #ADADC3",
"XC c #8B8B9B",
"XZ c #40408D",
"XA c #D0D0E2",
"XS c #3E3E8B",
"XD c #E3E3EE",
"XF c #A7A7BD",
"XG c #2A2A74",
"XH c #F4F4F8",
"XJ c #B7B7D0",
"XK c #3A3A87",
"XL c #ADADAF",
"XP c #8D8DB4",
"XI c #E0E0E1",
"XU c #4B4B91",
"XY c #7373AB",
"XT c #5E5E9D",
"XR c #7171A9",
"XE c #77779B",
"XW c #B2B2C1",
"XQ c #45458B",
"X! c #30307D",
"X~ c #9595BF",
"X^ c #D8D8D9",
"X/ c #AEAEBD",
"X( c #7E7EAF",
"X) c #B1B1B6",
"X_ c #6C6C9A",
"X` c #67679F",
"X' c #65659D",
"X] c #686896",
"X[ c #838396",
"X{ c #CBCBD6",
"X} c #494992",
"X| c #67678B",
"o  c #DCDCE0",
"o. c #323282",
"oX c #FFFFFF",
"oo c #C8C8C9",
"oO c #FDFDFD",
"o+ c #ABABC7",
"o@ c #313177",
"o# c #FBFBFB",
"o$ c #B1B1B9",
"o% c #F9F9F9",
"o& c #2A2A7A",
"o* c #F7F7F7",
"o= c #15156C",
"o- c #3D3D86",
"o; c #8D8DBA",
"o: c #F5F5F5",
"o> c #53538B",
"o, c #666697",
"o< c #A6A6B8",
"o1 c #F3F3F3",
"o2 c #393982",
"o3 c #61619C",
"o4 c #F1F1F1",
"o5 c #67678E",
"o6 c #A7A7AF",
"o7 c #EFEFEF",
"o8 c #CACACE",
"o9 c #9A9AC0",
"o0 c #202070",
"oq c #EDEDED",
"ow c #5B5B96",
"oe c #6E6EA2",
"or c #AEAEC3",
"ot c #E9E9E9",
"oy c #545499",
"ou c #E7E7E7",
"oi c #525297",
"op c #E5E5E5",
"oa c #F3F3F6",
"os c #E1E1E1",
"od c #C9C9DA",
"of c #97979F",
"og c #DFDFDF",
"oh c #CACAD1",
"oj c #DDDDDD",
"ok c #48488D",
"ol c #8888AE",
"oz c #9898C1",
"ox c #DBDBDB",
"oc c #8383B3",
"ov c #9696BF",
"ob c #D9D9D9",
"on c #8181B1",
"om c #D7D7D7",
"oM c #424287",
"oN c #D5D5D5",
"oB c #58588C",
"oV c #D3D3D3",
"oC c #BBBBCC",
"oZ c #26267C",
"oA c #D1D1D1",
"oS c #CFCFCF",
"oD c #DCDCE9",
"oF c #A2A2BA",
"oG c #EFEFF5",
"oH c #CDCDCD",
"oJ c #202076",
"oK c #C8C8D2",
"oL c #CBCBCB",
"oP c #9B9BBD",
"oI c #1E1E74",
"oU c #6E6EA8",
"oY c #C9C9C9",
"oT c #6F6F9F",
"oR c #9292BE",
"oE c #C5C5C5",
"oW c #5B5B88",
"oQ c #6868A2",
"o! c #9090BC",
"o~ c #C3C3C3",
"o^ c #C1C1C1",
"o/ c #676797",
"o( c #BDBDBD",
"o) c #4D4D8E",
"o_ c #B9B9B9",
"o` c #49498A",
"o' c #44448F",
"o] c #8484B0",
"o[ c #C4C4D1",
"o{ c #4A4A81",
"o} c #B5B5B5",
"o| c #E5E5EE",
"O  c #9393B8",
"O. c None",
/* pixels */
"                                   IXd                          ",
"                                XS ^ I                          ",
"                                oRoXoz                          ",
"                              o' 2oXX0                          ",
"                              X~oXoX.$                          ",
"                             3XDoXoX.@                          ",
"                            ovoXoXoX 0Xx                        ",
"                           Do| _oXXDoioZ.[                      ",
"                          .io%o#oGoc.eXZ VoU                    ",
"                        .] |...^X  bXHX}oXXA z                  ",
"                      X9X-.`onX4XYX;oX.)oXoXXc.F                ",
"                       WX7 gXT u.4oOoX )o% _.8 O.T              ",
"                      .B j 7 *o: } {oDX:.ooa.- pXw L            ",
"                     1 `.;oq.%.#o: }o;XKo7.IXR 'oXoR            ",
"                    X` S.,.;oq.%.#Xkoi $oPoQ m } '. oy          ",
"                  .doC.6op.,.;oqod >.hX(o3X$.*o1o* .XM 9        ",
"                Xn.cojog.6opou.5.x.`.oXr vopot.*XJX< n 2 !      ",
"                XN t.rojo[XPXvX7X..*o4.&.J.7.3 <X'X,o1o*o!X6    ",
"               e r RolXso&XeXgo ot.= % l Xox C =o].;.*Xb D.NXx  ",
"              .MoI a 8.}XV.9os.3.<.,.+.to8.mok.Vosopoto+ JXzXq  ",
"               5XmoAoV.aob.w.9os.3O  fo)XQXfoF.u.w.7.>.A co1o9  ",
"             k hoL.koAoV.aob.w P GoeX{o.X_oooSoVomoh 4O .; i .  ",
"          Xl @.noYoL.koAoV.aorowXsoKXyoJ.2oE.z.k U.(XhXIop Q    ",
"          X]o^o~.noYoL ~ 6Xj.Z NX^oj & T.K.D.! ;oM s Y.wX=XU    ",
"         KX).Ho^X3 (X+o`o2oTXWoN.uob F qo6.:XXX5X/oSoVXFX%      ",
"      Xio>XE A.C ,X#o/Xa ZoH.g.foN.p.0XtX1Xu E.S.n.z.jX&        ",
"      o=.loB._.{XOo$.SoE.v.zoHoS.Po-  .O M.~o_o(.G ]o0          ",
"    .1XBXL./o}.R.Uo(.D.SoE.vo< oX9   yXC #.' xX8X2              ",
"    .b.| +.'./o}.R.Uo(.DXpo,X!       HX[o5 wX6                  ",
"  o{ofXo.| +.'./o}.sX@ d -          XGX>                        ",
"o@.LX* :Xo.q [.y.W /X9                                          ",
" B.XX|oW.E.Q.Y                                                  "
};
