999
DXF created by Sailcut CAD
0
SECTION
2
HEADER
0
ENDSEC
0
SECTION
2
TABLES
0
TABLE
2
LAYER
70
6
0
LAYER
2
1
70
64
62
4
6
CONTINUOUS
0
LAYER
2
2
70
64
62
2
6
CONTINUOUS
0
LAYER
2
3
70
64
62
4
6
CONTINUOUS
0
LAYER
2
4
70
64
62
2
6
CONTINUOUS
0
LAYER
2
5
70
64
62
4
6
CONTINUOUS
0
ENDTAB
0
ENDSEC
0
SECTION
2
ENTITIES
0
3DFACE
8
1
10
227.296
20
162.802
30
1.25297e-10
11
196.667
21
60
31
0
12
206.816
22
94.2638
32
1.57692e-11
13
206.816
23
94.2638
33
1.57692e-11
0
3DFACE
8
1
10
227.296
20
162.802
30
1.25297e-10
11
206.816
21
94.2638
31
1.57692e-11
12
216.989
22
128.529
32
1.33438e-11
13
216.989
23
128.529
33
1.33438e-11
0
3DFACE
8
1
10
227.296
20
162.802
30
1.25297e-10
11
216.989
21
128.529
31
1.33438e-11
12
227.187
22
162.796
32
6.79915e-11
13
227.187
23
162.796
33
6.79915e-11
0
3DFACE
8
1
10
227.296
20
162.802
30
1.25297e-10
11
227.187
21
162.796
31
6.79915e-11
12
237.409
22
197.064
32
1.33544e-10
13
237.409
23
197.064
33
1.33544e-10
0
3DFACE
8
1
10
227.296
20
162.802
30
1.25297e-10
11
237.409
21
197.064
31
1.33544e-10
12
247.655
22
231.333
32
1.97649e-10
13
247.655
23
231.333
33
1.97649e-10
0
3DFACE
8
1
10
227.296
20
162.802
30
1.25297e-10
11
247.655
21
231.333
31
1.97649e-10
12
257.926
22
265.605
32
2.50594e-10
13
257.926
23
265.605
33
2.50594e-10
0
3DFACE
8
1
10
257.926
20
265.605
30
2.50594e-10
11
196.667
21
60
31
0
12
272.768
22
266.51
32
3.67824
13
272.768
23
266.51
33
3.67824
0
3DFACE
8
1
10
272.768
20
266.51
30
3.67824
11
214.868
21
60.8552
31
2.57587
12
196.667
22
60
32
0
13
196.667
23
60
33
0
0
3DFACE
8
1
10
272.768
20
266.51
30
3.67824
11
214.868
21
60.8552
31
2.57587
12
287.634
22
267.416
32
6.8339
13
287.634
23
267.416
33
6.8339
0
3DFACE
8
1
10
287.634
20
267.416
30
6.8339
11
233.07
21
61.9572
31
4.75575
12
214.868
22
60.8552
32
2.57587
13
214.868
23
60.8552
33
2.57587
0
3DFACE
8
1
10
287.634
20
267.416
30
6.8339
11
233.07
21
61.9572
31
4.75575
12
302.521
22
268.321
32
9.50799
13
302.521
23
268.321
33
9.50799
0
3DFACE
8
1
10
302.521
20
268.321
30
9.50799
11
251.272
21
63.3078
31
6.56238
12
233.07
22
61.9572
32
4.75575
13
233.07
23
61.9572
33
4.75575
0
3DFACE
8
1
10
302.521
20
268.321
30
9.50799
11
251.272
21
63.3078
31
6.56238
12
317.428
22
269.227
32
11.7409
13
317.428
23
269.227
33
11.7409
0
3DFACE
8
1
10
317.428
20
269.227
30
11.7409
11
269.473
21
64.9088
31
8.01779
12
251.272
22
63.3078
32
6.56238
13
251.272
23
63.3078
33
6.56238
0
3DFACE
8
1
10
317.428
20
269.227
30
11.7409
11
269.473
21
64.9088
31
8.01779
12
332.353
22
270.133
32
13.5723
13
332.353
23
270.133
33
13.5723
0
3DFACE
8
1
10
332.353
20
270.133
30
13.5723
11
287.675
21
66.7622
31
9.14343
12
269.473
22
64.9088
32
8.01779
13
269.473
23
64.9088
33
8.01779
0
3DFACE
8
1
10
332.353
20
270.133
30
13.5723
11
287.675
21
66.7622
31
9.14343
12
347.295
22
271.038
32
15.0409
13
347.295
23
271.038
33
15.0409
0
3DFACE
8
1
10
347.295
20
271.038
30
15.0409
11
305.876
21
68.8698
31
9.96018
12
287.675
22
66.7622
32
9.14343
13
287.675
23
66.7622
33
9.14343
0
3DFACE
8
1
10
347.295
20
271.038
30
15.0409
11
305.876
21
68.8698
31
9.96018
12
362.253
22
271.944
32
16.1844
13
362.253
23
271.944
33
16.1844
0
3DFACE
8
1
10
362.253
20
271.944
30
16.1844
11
324.078
21
71.2335
31
10.4885
12
305.876
22
68.8698
32
9.96018
13
305.876
23
68.8698
33
9.96018
0
3DFACE
8
1
10
362.253
20
271.944
30
16.1844
11
324.078
21
71.2335
31
10.4885
12
377.225
22
272.849
32
17.0393
13
377.225
23
272.849
33
17.0393
0
3DFACE
8
1
10
377.225
20
272.849
30
17.0393
11
342.28
21
73.8553
31
10.7483
12
324.078
22
71.2335
32
10.4885
13
324.078
23
71.2335
33
10.4885
0
3DFACE
8
1
10
377.225
20
272.849
30
17.0393
11
342.28
21
73.8553
31
10.7483
12
392.209
22
273.755
32
17.6405
13
392.209
23
273.755
33
17.6405
0
3DFACE
8
1
10
392.209
20
273.755
30
17.6405
11
360.481
21
76.737
31
10.7594
12
342.28
22
73.8553
32
10.7483
13
342.28
23
73.8553
33
10.7483
0
3DFACE
8
1
10
392.209
20
273.755
30
17.6405
11
360.481
21
76.737
31
10.7594
12
407.204
22
274.661
32
18.0215
13
407.204
23
274.661
33
18.0215
0
3DFACE
8
1
10
407.204
20
274.661
30
18.0215
11
378.683
21
79.8808
31
10.5413
12
360.481
22
76.737
32
10.7594
13
360.481
23
76.737
33
10.7594
0
3DFACE
8
1
10
407.204
20
274.661
30
18.0215
11
378.683
21
79.8808
31
10.5413
12
422.209
22
275.566
32
18.2139
13
422.209
23
275.566
33
18.2139
0
3DFACE
8
1
10
422.209
20
275.566
30
18.2139
11
396.885
21
83.2886
31
10.1131
12
378.683
22
79.8808
32
10.5413
13
378.683
23
79.8808
33
10.5413
0
3DFACE
8
1
10
422.209
20
275.566
30
18.2139
11
396.885
21
83.2886
31
10.1131
12
437.222
22
276.472
32
18.2475
13
437.222
23
276.472
33
18.2475
0
3DFACE
8
1
10
437.222
20
276.472
30
18.2475
11
415.086
21
86.9624
31
9.49399
12
396.885
22
83.2886
32
10.1131
13
396.885
23
83.2886
33
10.1131
0
3DFACE
8
1
10
437.222
20
276.472
30
18.2475
11
415.086
21
86.9624
31
9.49399
12
452.242
22
277.377
32
18.1495
13
452.242
23
277.377
33
18.1495
0
3DFACE
8
1
10
452.242
20
277.377
30
18.1495
11
433.288
21
90.9043
31
8.70317
12
415.086
22
86.9624
32
9.49399
13
415.086
23
86.9624
33
9.49399
0
3DFACE
8
1
10
452.242
20
277.377
30
18.1495
11
433.288
21
90.9043
31
8.70317
12
467.269
22
278.283
32
17.9451
13
467.269
23
278.283
33
17.9451
0
3DFACE
8
1
10
467.269
20
278.283
30
17.9451
11
451.489
21
95.1164
31
7.75979
12
433.288
22
90.9043
32
8.70317
13
433.288
23
90.9043
33
8.70317
0
3DFACE
8
1
10
467.269
20
278.283
30
17.9451
11
451.489
21
95.1164
31
7.75979
12
482.3
22
279.189
32
17.6568
13
482.3
23
279.189
33
17.6568
0
3DFACE
8
1
10
482.3
20
279.189
30
17.6568
11
469.691
21
99.6008
31
6.68319
12
451.489
22
95.1164
32
7.75979
13
451.489
23
95.1164
33
7.75979
0
3DFACE
8
1
10
482.3
20
279.189
30
17.6568
11
469.691
21
99.6008
31
6.68319
12
497.335
22
280.094
32
17.3041
13
497.335
23
280.094
33
17.3041
0
3DFACE
8
1
10
497.335
20
280.094
30
17.3041
11
487.893
21
104.36
31
5.49291
12
469.691
22
99.6008
32
6.68319
13
469.691
23
99.6008
33
6.68319
0
3DFACE
8
1
10
497.335
20
280.094
30
17.3041
11
487.893
21
104.36
31
5.49291
12
512.373
22
281
32
16.9036
13
512.373
23
281
33
16.9036
0
3DFACE
8
1
10
512.373
20
281
30
16.9036
11
506.094
21
109.395
31
4.20885
12
487.893
22
104.36
32
5.49291
13
487.893
23
104.36
33
5.49291
0
3DFACE
8
1
10
512.373
20
281
30
16.9036
11
506.094
21
109.395
31
4.20885
12
527.414
22
281.906
32
16.4685
13
527.414
23
281.906
33
16.4685
0
3DFACE
8
1
10
527.414
20
281.906
30
16.4685
11
524.296
21
114.709
31
2.85133
12
506.094
22
109.395
32
4.20885
13
506.094
23
109.395
33
4.20885
0
3DFACE
8
1
10
527.414
20
281.906
30
16.4685
11
524.296
21
114.709
31
2.85133
12
542.457
22
282.811
32
16.0084
13
542.457
23
282.811
33
16.0084
0
3DFACE
8
1
10
542.457
20
282.811
30
16.0084
11
542.498
21
120.305
31
1.44121
12
524.296
22
114.709
32
2.85133
13
524.296
23
114.709
33
2.85133
0
3DFACE
8
1
10
542.457
20
282.811
30
16.0084
11
542.498
21
120.305
31
1.44121
12
557.502
22
283.717
32
15.5288
13
557.502
23
283.717
33
15.5288
0
3DFACE
8
1
10
557.502
20
283.717
30
15.5288
11
560.699
21
126.183
31
-1.02926e-15
12
542.498
22
120.305
32
1.44121
13
542.498
23
120.305
33
1.44121
0
3DFACE
8
1
10
559.101
20
204.95
30
7.76442
11
560.699
21
126.183
31
-1.02926e-15
12
560.389
22
152.449
32
2.95745
13
560.389
23
152.449
33
2.95745
0
3DFACE
8
1
10
559.101
20
204.95
30
7.76442
11
560.389
21
152.449
31
2.95745
12
559.987
22
178.711
32
5.77017
13
559.987
23
178.711
33
5.77017
0
3DFACE
8
1
10
559.101
20
204.95
30
7.76442
11
559.987
21
178.711
31
5.77017
12
559.495
22
204.968
32
8.4359
13
559.495
23
204.968
33
8.4359
0
3DFACE
8
1
10
559.101
20
204.95
30
7.76442
11
559.495
21
204.968
31
8.4359
12
558.915
22
231.222
32
10.9524
13
558.915
23
231.222
33
10.9524
0
3DFACE
8
1
10
559.101
20
204.95
30
7.76442
11
558.915
21
231.222
31
10.9524
12
558.25
22
257.471
32
13.3174
13
558.25
23
257.471
33
13.3174
0
3DFACE
8
1
10
559.101
20
204.95
30
7.76442
11
558.25
21
257.471
31
13.3174
12
557.502
22
283.717
32
15.5288
13
557.502
23
283.717
33
15.5288
0
3DFACE
8
2
10
288.992
20
368.426
30
1.76695e-10
11
257.926
21
265.605
31
2.50594e-10
12
268.22
22
299.875
32
2.85186e-10
13
268.22
23
299.875
33
2.85186e-10
0
3DFACE
8
2
10
288.992
20
368.426
30
1.76695e-10
11
268.22
21
299.875
31
2.85186e-10
12
278.539
22
334.147
32
2.96349e-10
13
278.539
23
334.147
33
2.96349e-10
0
3DFACE
8
2
10
288.992
20
368.426
30
1.76695e-10
11
278.539
21
334.147
31
2.96349e-10
12
288.882
22
368.42
32
2.82186e-10
13
288.882
23
368.42
33
2.82186e-10
0
3DFACE
8
2
10
288.992
20
368.426
30
1.76695e-10
11
288.882
21
368.42
31
2.82186e-10
12
299.25
22
402.694
32
2.42515e-10
13
299.25
23
402.694
33
2.42515e-10
0
3DFACE
8
2
10
288.992
20
368.426
30
1.76695e-10
11
299.25
21
402.694
31
2.42515e-10
12
309.642
22
436.97
32
1.80982e-10
13
309.642
23
436.97
33
1.80982e-10
0
3DFACE
8
2
10
288.992
20
368.426
30
1.76695e-10
11
309.642
21
436.97
31
1.80982e-10
12
320.059
22
471.248
32
1.02796e-10
13
320.059
23
471.248
33
1.02796e-10
0
3DFACE
8
2
10
320.059
20
471.248
30
1.02796e-10
11
257.926
21
265.605
31
2.50594e-10
12
331.13
22
471.945
32
4.67389
13
331.13
23
471.945
33
4.67389
0
3DFACE
8
2
10
331.13
20
471.945
30
4.67389
11
272.768
21
266.51
31
3.67824
12
257.926
22
265.605
32
2.50594e-10
13
257.926
23
265.605
33
2.50594e-10
0
3DFACE
8
2
10
331.13
20
471.945
30
4.67389
11
272.768
21
266.51
31
3.67824
12
342.286
22
472.641
32
8.61202
13
342.286
23
472.641
33
8.61202
0
3DFACE
8
2
10
342.286
20
472.641
30
8.61202
11
287.634
21
267.416
31
6.8339
12
272.768
22
266.51
32
3.67824
13
272.768
23
266.51
33
3.67824
0
3DFACE
8
2
10
342.286
20
472.641
30
8.61202
11
287.634
21
267.416
31
6.8339
12
353.515
22
473.338
32
11.9109
13
353.515
23
473.338
33
11.9109
0
3DFACE
8
2
10
353.515
20
473.338
30
11.9109
11
302.521
21
268.321
31
9.50799
12
287.634
22
267.416
32
6.8339
13
287.634
23
267.416
33
6.8339
0
3DFACE
8
2
10
353.515
20
473.338
30
11.9109
11
302.521
21
268.321
31
9.50799
12
364.807
22
474.035
32
14.6588
13
364.807
23
474.035
33
14.6588
0
3DFACE
8
2
10
364.807
20
474.035
30
14.6588
11
317.428
21
269.227
31
11.7409
12
302.521
22
268.321
32
9.50799
13
302.521
23
268.321
33
9.50799
0
3DFACE
8
2
10
364.807
20
474.035
30
14.6588
11
317.428
21
269.227
31
11.7409
12
376.154
22
474.731
32
16.9361
13
376.154
23
474.731
33
16.9361
0
3DFACE
8
2
10
376.154
20
474.731
30
16.9361
11
332.353
21
270.133
31
13.5723
12
317.428
22
269.227
32
11.7409
13
317.428
23
269.227
33
11.7409
0
3DFACE
8
2
10
376.154
20
474.731
30
16.9361
11
332.353
21
270.133
31
13.5723
12
387.547
22
475.428
32
18.8151
13
387.547
23
475.428
33
18.8151
0
3DFACE
8
2
10
387.547
20
475.428
30
18.8151
11
347.295
21
271.038
31
15.0409
12
332.353
22
270.133
32
13.5723
13
332.353
23
270.133
33
13.5723
0
3DFACE
8
2
10
387.547
20
475.428
30
18.8151
11
347.295
21
271.038
31
15.0409
12
398.98
22
476.125
32
20.3605
13
398.98
23
476.125
33
20.3605
0
3DFACE
8
2
10
398.98
20
476.125
30
20.3605
11
362.253
21
271.944
31
16.1844
12
347.295
22
271.038
32
15.0409
13
347.295
23
271.038
33
15.0409
0
3DFACE
8
2
10
398.98
20
476.125
30
20.3605
11
362.253
21
271.944
31
16.1844
12
410.444
22
476.821
32
21.6292
13
410.444
23
476.821
33
21.6292
0
3DFACE
8
2
10
410.444
20
476.821
30
21.6292
11
377.225
21
272.849
31
17.0393
12
362.253
22
271.944
32
16.1844
13
362.253
23
271.944
33
16.1844
0
3DFACE
8
2
10
410.444
20
476.821
30
21.6292
11
377.225
21
272.849
31
17.0393
12
421.936
22
477.518
32
22.6712
13
421.936
23
477.518
33
22.6712
0
3DFACE
8
2
10
421.936
20
477.518
30
22.6712
11
392.209
21
273.755
31
17.6405
12
377.225
22
272.849
32
17.0393
13
377.225
23
272.849
33
17.0393
0
3DFACE
8
2
10
421.936
20
477.518
30
22.6712
11
392.209
21
273.755
31
17.6405
12
433.45
22
478.215
32
23.5291
13
433.45
23
478.215
33
23.5291
0
3DFACE
8
2
10
433.45
20
478.215
30
23.5291
11
407.204
21
274.661
31
18.0215
12
392.209
22
273.755
32
17.6405
13
392.209
23
273.755
33
17.6405
0
3DFACE
8
2
10
433.45
20
478.215
30
23.5291
11
407.204
21
274.661
31
18.0215
12
444.981
22
478.911
32
24.239
13
444.981
23
478.911
33
24.239
0
3DFACE
8
2
10
444.981
20
478.911
30
24.239
11
422.209
21
275.566
31
18.2139
12
407.204
22
274.661
32
18.0215
13
407.204
23
274.661
33
18.0215
0
3DFACE
8
2
10
444.981
20
478.911
30
24.239
11
422.209
21
275.566
31
18.2139
12
456.527
22
479.608
32
24.8308
13
456.527
23
479.608
33
24.8308
0
3DFACE
8
2
10
456.527
20
479.608
30
24.8308
11
437.222
21
276.472
31
18.2475
12
422.209
22
275.566
32
18.2139
13
422.209
23
275.566
33
18.2139
0
3DFACE
8
2
10
456.527
20
479.608
30
24.8308
11
437.222
21
276.472
31
18.2475
12
468.084
22
480.305
32
25.3283
13
468.084
23
480.305
33
25.3283
0
3DFACE
8
2
10
468.084
20
480.305
30
25.3283
11
452.242
21
277.377
31
18.1495
12
437.222
22
276.472
32
18.2475
13
437.222
23
276.472
33
18.2475
0
3DFACE
8
2
10
468.084
20
480.305
30
25.3283
11
452.242
21
277.377
31
18.1495
12
479.651
22
481.001
32
25.7499
13
479.651
23
481.001
33
25.7499
0
3DFACE
8
2
10
479.651
20
481.001
30
25.7499
11
467.269
21
278.283
31
17.9451
12
452.242
22
277.377
32
18.1495
13
452.242
23
277.377
33
18.1495
0
3DFACE
8
2
10
479.651
20
481.001
30
25.7499
11
467.269
21
278.283
31
17.9451
12
491.226
22
481.698
32
26.109
13
491.226
23
481.698
33
26.109
0
3DFACE
8
2
10
491.226
20
481.698
30
26.109
11
482.3
21
279.189
31
17.6568
12
467.269
22
278.283
32
17.9451
13
467.269
23
278.283
33
17.9451
0
3DFACE
8
2
10
491.226
20
481.698
30
26.109
11
482.3
21
279.189
31
17.6568
12
502.807
22
482.395
32
26.4147
13
502.807
23
482.395
33
26.4147
0
3DFACE
8
2
10
502.807
20
482.395
30
26.4147
11
497.335
21
280.094
31
17.3041
12
482.3
22
279.189
32
17.6568
13
482.3
23
279.189
33
17.6568
0
3DFACE
8
2
10
502.807
20
482.395
30
26.4147
11
497.335
21
280.094
31
17.3041
12
514.395
22
483.091
32
26.6721
13
514.395
23
483.091
33
26.6721
0
3DFACE
8
2
10
514.395
20
483.091
30
26.6721
11
512.373
21
281
31
16.9036
12
497.335
22
280.094
32
17.3041
13
497.335
23
280.094
33
17.3041
0
3DFACE
8
2
10
514.395
20
483.091
30
26.6721
11
512.373
21
281
31
16.9036
12
525.989
22
483.788
32
26.8834
13
525.989
23
483.788
33
26.8834
0
3DFACE
8
2
10
525.989
20
483.788
30
26.8834
11
527.414
21
281.906
31
16.4685
12
512.373
22
281
32
16.9036
13
512.373
23
281
33
16.9036
0
3DFACE
8
2
10
525.989
20
483.788
30
26.8834
11
527.414
21
281.906
31
16.4685
12
537.589
22
484.485
32
27.0479
13
537.589
23
484.485
33
27.0479
0
3DFACE
8
2
10
537.589
20
484.485
30
27.0479
11
542.457
21
282.811
31
16.0084
12
527.414
22
281.906
32
16.4685
13
527.414
23
281.906
33
16.4685
0
3DFACE
8
2
10
537.589
20
484.485
30
27.0479
11
542.457
21
282.811
31
16.0084
12
549.196
22
485.181
32
27.1635
13
549.196
23
485.181
33
27.1635
0
3DFACE
8
2
10
549.196
20
485.181
30
27.1635
11
557.502
21
283.717
31
15.5288
12
542.457
22
282.811
32
16.0084
13
542.457
23
282.811
33
16.0084
0
3DFACE
8
2
10
553.349
20
384.449
30
21.3462
11
557.502
21
283.717
31
15.5288
12
556.425
22
317.311
32
18.1322
13
556.425
23
317.311
33
18.1322
0
3DFACE
8
2
10
553.349
20
384.449
30
21.3462
11
556.425
21
317.311
31
18.1322
12
555.219
22
350.898
32
20.4756
13
555.219
23
350.898
33
20.4756
0
3DFACE
8
2
10
553.349
20
384.449
30
21.3462
11
555.219
21
350.898
31
20.4756
12
553.888
22
384.479
32
22.5548
13
553.888
23
384.479
33
22.5548
0
3DFACE
8
2
10
553.349
20
384.449
30
21.3462
11
553.888
21
384.479
31
22.5548
12
552.438
22
418.053
32
24.3653
13
552.438
23
418.053
33
24.3653
0
3DFACE
8
2
10
553.349
20
384.449
30
21.3462
11
552.438
21
418.053
31
24.3653
12
550.872
22
451.62
32
25.9029
13
550.872
23
451.62
33
25.9029
0
3DFACE
8
2
10
553.349
20
384.449
30
21.3462
11
550.872
21
451.62
31
25.9029
12
549.196
22
485.181
32
27.1635
13
549.196
23
485.181
33
27.1635
0
3DFACE
8
3
10
351.502
20
574.038
30
6.16085e-11
11
320.059
21
471.248
31
1.02796e-10
12
330.494
22
505.508
32
1.63442e-11
13
330.494
23
505.508
33
1.63442e-11
0
3DFACE
8
3
10
351.502
20
574.038
30
6.16085e-11
11
330.494
21
505.508
31
1.63442e-11
12
340.951
22
539.77
32
3.68686e-11
13
340.951
23
539.77
33
3.68686e-11
0
3DFACE
8
3
10
351.502
20
574.038
30
6.16085e-11
11
340.951
21
539.77
31
3.68686e-11
12
351.425
22
574.033
32
6.48391e-11
13
351.425
23
574.033
33
6.48391e-11
0
3DFACE
8
3
10
351.502
20
574.038
30
6.16085e-11
11
351.425
21
574.033
31
6.48391e-11
12
361.916
22
608.297
32
6.51159e-11
13
361.916
23
608.297
33
6.51159e-11
0
3DFACE
8
3
10
351.502
20
574.038
30
6.16085e-11
11
361.916
21
608.297
31
6.51159e-11
12
372.422
22
642.561
32
2.76955e-11
13
372.422
23
642.561
33
2.76955e-11
0
3DFACE
8
3
10
351.502
20
574.038
30
6.16085e-11
11
372.422
21
642.561
31
2.76955e-11
12
382.945
22
676.827
32
2.04214e-11
13
382.945
23
676.827
33
2.04214e-11
0
3DFACE
8
3
10
382.945
20
676.827
30
2.04214e-11
11
320.059
21
471.248
31
1.02796e-10
12
390.167
22
677.301
32
4.0311
13
390.167
23
677.301
33
4.0311
0
3DFACE
8
3
10
390.167
20
677.301
30
4.0311
11
331.13
21
471.945
31
4.67389
12
320.059
22
471.248
32
1.02796e-10
13
320.059
23
471.248
33
1.02796e-10
0
3DFACE
8
3
10
390.167
20
677.301
30
4.0311
11
331.13
21
471.945
31
4.67389
12
397.505
22
677.774
32
7.43747
13
397.505
23
677.774
33
7.43747
0
3DFACE
8
3
10
397.505
20
677.774
30
7.43747
11
342.286
21
472.641
31
8.61202
12
331.13
22
471.945
32
4.67389
13
331.13
23
471.945
33
4.67389
0
3DFACE
8
3
10
397.505
20
677.774
30
7.43747
11
342.286
21
472.641
31
8.61202
12
404.94
22
678.247
32
10.3154
13
404.94
23
678.247
33
10.3154
0
3DFACE
8
3
10
404.94
20
678.247
30
10.3154
11
353.515
21
473.338
31
11.9109
12
342.286
22
472.641
32
8.61202
13
342.286
23
472.641
33
8.61202
0
3DFACE
8
3
10
404.94
20
678.247
30
10.3154
11
353.515
21
473.338
31
11.9109
12
412.458
22
678.721
32
12.7503
13
412.458
23
678.721
33
12.7503
0
3DFACE
8
3
10
412.458
20
678.721
30
12.7503
11
364.807
21
474.035
31
14.6588
12
353.515
22
473.338
32
11.9109
13
353.515
23
473.338
33
11.9109
0
3DFACE
8
3
10
412.458
20
678.721
30
12.7503
11
364.807
21
474.035
31
14.6588
12
420.045
22
679.194
32
14.8173
13
420.045
23
679.194
33
14.8173
0
3DFACE
8
3
10
420.045
20
679.194
30
14.8173
11
376.154
21
474.731
31
16.9361
12
364.807
22
474.035
32
14.6588
13
364.807
23
474.035
33
14.6588
0
3DFACE
8
3
10
420.045
20
679.194
30
14.8173
11
376.154
21
474.731
31
16.9361
12
427.688
22
679.668
32
16.5817
13
427.688
23
679.668
33
16.5817
0
3DFACE
8
3
10
427.688
20
679.668
30
16.5817
11
387.547
21
475.428
31
18.8151
12
376.154
22
474.731
32
16.9361
13
376.154
23
474.731
33
16.9361
0
3DFACE
8
3
10
427.688
20
679.668
30
16.5817
11
387.547
21
475.428
31
18.8151
12
435.377
22
680.141
32
18.1
13
435.377
23
680.141
33
18.1
0
3DFACE
8
3
10
435.377
20
680.141
30
18.1
11
398.98
21
476.125
31
20.3605
12
387.547
22
475.428
32
18.8151
13
387.547
23
475.428
33
18.8151
0
3DFACE
8
3
10
435.377
20
680.141
30
18.1
11
398.98
21
476.125
31
20.3605
12
443.104
22
680.615
32
19.4202
13
443.104
23
680.615
33
19.4202
0
3DFACE
8
3
10
443.104
20
680.615
30
19.4202
11
410.444
21
476.821
31
21.6292
12
398.98
22
476.125
32
20.3605
13
398.98
23
476.125
33
20.3605
0
3DFACE
8
3
10
443.104
20
680.615
30
19.4202
11
410.444
21
476.821
31
21.6292
12
450.86
22
681.088
32
20.5824
13
450.86
23
681.088
33
20.5824
0
3DFACE
8
3
10
450.86
20
681.088
30
20.5824
11
421.936
21
477.518
31
22.6712
12
410.444
22
476.821
32
21.6292
13
410.444
23
476.821
33
21.6292
0
3DFACE
8
3
10
450.86
20
681.088
30
20.5824
11
421.936
21
477.518
31
22.6712
12
458.64
22
681.561
32
21.62
13
458.64
23
681.561
33
21.62
0
3DFACE
8
3
10
458.64
20
681.561
30
21.62
11
433.45
21
478.215
31
23.5291
12
421.936
22
477.518
32
22.6712
13
421.936
23
477.518
33
22.6712
0
3DFACE
8
3
10
458.64
20
681.561
30
21.62
11
433.45
21
478.215
31
23.5291
12
466.438
22
682.035
32
22.5595
13
466.438
23
682.035
33
22.5595
0
3DFACE
8
3
10
466.438
20
682.035
30
22.5595
11
444.981
21
478.911
31
24.239
12
433.45
22
478.215
32
23.5291
13
433.45
23
478.215
33
23.5291
0
3DFACE
8
3
10
466.438
20
682.035
30
22.5595
11
444.981
21
478.911
31
24.239
12
474.251
22
682.508
32
23.4221
13
474.251
23
682.508
33
23.4221
0
3DFACE
8
3
10
474.251
20
682.508
30
23.4221
11
456.527
21
479.608
31
24.8308
12
444.981
22
478.911
32
24.239
13
444.981
23
478.911
33
24.239
0
3DFACE
8
3
10
474.251
20
682.508
30
23.4221
11
456.527
21
479.608
31
24.8308
12
482.075
22
682.982
32
24.2237
13
482.075
23
682.982
33
24.2237
0
3DFACE
8
3
10
482.075
20
682.982
30
24.2237
11
468.084
21
480.305
31
25.3283
12
456.527
22
479.608
32
24.8308
13
456.527
23
479.608
33
24.8308
0
3DFACE
8
3
10
482.075
20
682.982
30
24.2237
11
468.084
21
480.305
31
25.3283
12
489.91
22
683.455
32
24.9757
13
489.91
23
683.455
33
24.9757
0
3DFACE
8
3
10
489.91
20
683.455
30
24.9757
11
479.651
21
481.001
31
25.7499
12
468.084
22
480.305
32
25.3283
13
468.084
23
480.305
33
25.3283
0
3DFACE
8
3
10
489.91
20
683.455
30
24.9757
11
479.651
21
481.001
31
25.7499
12
497.752
22
683.929
32
25.6859
13
497.752
23
683.929
33
25.6859
0
3DFACE
8
3
10
497.752
20
683.929
30
25.6859
11
491.226
21
481.698
31
26.109
12
479.651
22
481.001
32
25.7499
13
479.651
23
481.001
33
25.7499
0
3DFACE
8
3
10
497.752
20
683.929
30
25.6859
11
491.226
21
481.698
31
26.109
12
505.602
22
684.402
32
26.3588
13
505.602
23
684.402
33
26.3588
0
3DFACE
8
3
10
505.602
20
684.402
30
26.3588
11
502.807
21
482.395
31
26.4147
12
491.226
22
481.698
32
26.109
13
491.226
23
481.698
33
26.109
0
3DFACE
8
3
10
505.602
20
684.402
30
26.3588
11
502.807
21
482.395
31
26.4147
12
513.458
22
684.875
32
26.9967
13
513.458
23
684.875
33
26.9967
0
3DFACE
8
3
10
513.458
20
684.875
30
26.9967
11
514.395
21
483.091
31
26.6721
12
502.807
22
482.395
32
26.4147
13
502.807
23
482.395
33
26.4147
0
3DFACE
8
3
10
513.458
20
684.875
30
26.9967
11
514.395
21
483.091
31
26.6721
12
521.321
22
685.349
32
27.5996
13
521.321
23
685.349
33
27.5996
0
3DFACE
8
3
10
521.321
20
685.349
30
27.5996
11
525.989
21
483.788
31
26.8834
12
514.395
22
483.091
32
26.6721
13
514.395
23
483.091
33
26.6721
0
3DFACE
8
3
10
521.321
20
685.349
30
27.5996
11
525.989
21
483.788
31
26.8834
12
529.192
22
685.822
32
28.1664
13
529.192
23
685.822
33
28.1664
0
3DFACE
8
3
10
529.192
20
685.822
30
28.1664
11
537.589
21
484.485
31
27.0479
12
525.989
22
483.788
32
26.8834
13
525.989
23
483.788
33
26.8834
0
3DFACE
8
3
10
529.192
20
685.822
30
28.1664
11
537.589
21
484.485
31
27.0479
12
537.07
22
686.296
32
28.6954
13
537.07
23
686.296
33
28.6954
0
3DFACE
8
3
10
537.07
20
686.296
30
28.6954
11
549.196
21
485.181
31
27.1635
12
537.589
22
484.485
32
27.0479
13
537.589
23
484.485
33
27.0479
0
3DFACE
8
3
10
543.133
20
585.738
30
27.9294
11
549.196
21
485.181
31
27.1635
12
547.416
22
518.717
32
28.1423
13
547.416
23
518.717
33
28.1423
0
3DFACE
8
3
10
543.133
20
585.738
30
27.9294
11
547.416
21
518.717
31
28.1423
12
545.536
22
552.247
32
28.837
13
545.536
23
552.247
33
28.837
0
3DFACE
8
3
10
543.133
20
585.738
30
27.9294
11
545.536
21
552.247
31
28.837
12
543.56
22
585.77
32
29.244
13
543.56
23
585.77
33
29.244
0
3DFACE
8
3
10
543.133
20
585.738
30
27.9294
11
543.56
21
585.77
31
29.244
12
541.494
22
619.286
32
29.3598
13
541.494
23
619.286
33
29.3598
0
3DFACE
8
3
10
543.133
20
585.738
30
27.9294
11
541.494
21
619.286
31
29.3598
12
539.342
22
652.795
32
29.1805
13
539.342
23
652.795
33
29.1805
0
3DFACE
8
3
10
543.133
20
585.738
30
27.9294
11
539.342
21
652.795
31
29.1805
12
537.07
22
686.296
32
28.6954
13
537.07
23
686.296
33
28.6954
0
3DFACE
8
4
10
414.692
20
779.65
30
2.73739e-10
11
382.945
21
676.827
31
2.04214e-11
12
393.486
22
711.099
32
6.7514e-11
13
393.486
23
711.099
33
6.7514e-11
0
3DFACE
8
4
10
414.692
20
779.65
30
2.73739e-10
11
393.486
21
711.099
31
6.7514e-11
12
404.044
22
745.372
32
1.30896e-10
13
404.044
23
745.372
33
1.30896e-10
0
3DFACE
8
4
10
414.692
20
779.65
30
2.73739e-10
11
404.044
21
745.372
31
1.30896e-10
12
414.618
22
779.646
32
2.10185e-10
13
414.618
23
779.646
33
2.10185e-10
0
3DFACE
8
4
10
414.692
20
779.65
30
2.73739e-10
11
414.618
21
779.646
31
2.10185e-10
12
425.209
22
813.92
32
3.04089e-10
13
425.209
23
813.92
33
3.04089e-10
0
3DFACE
8
4
10
414.692
20
779.65
30
2.73739e-10
11
425.209
21
813.92
31
3.04089e-10
12
435.815
22
848.196
32
4.1062e-10
13
435.815
23
848.196
33
4.1062e-10
0
3DFACE
8
4
10
414.692
20
779.65
30
2.73739e-10
11
435.815
21
848.196
31
4.1062e-10
12
446.439
22
882.473
32
5.27056e-10
13
446.439
23
882.473
33
5.27056e-10
0
3DFACE
8
4
10
446.439
20
882.473
30
5.27056e-10
11
382.945
21
676.827
31
2.04214e-11
12
449.801
22
882.705
32
2.3599
13
449.801
23
882.705
33
2.3599
0
3DFACE
8
4
10
449.801
20
882.705
30
2.3599
11
390.167
21
677.301
31
4.0311
12
382.945
22
676.827
32
2.04214e-11
13
382.945
23
676.827
33
2.04214e-11
0
3DFACE
8
4
10
449.801
20
882.705
30
2.3599
11
390.167
21
677.301
31
4.0311
12
453.257
22
882.938
32
4.36106
13
453.257
23
882.938
33
4.36106
0
3DFACE
8
4
10
453.257
20
882.938
30
4.36106
11
397.505
21
677.774
31
7.43747
12
390.167
22
677.301
32
4.0311
13
390.167
23
677.301
33
4.0311
0
3DFACE
8
4
10
453.257
20
882.938
30
4.36106
11
397.505
21
677.774
31
7.43747
12
456.789
22
883.17
32
6.06452
13
456.789
23
883.17
33
6.06452
0
3DFACE
8
4
10
456.789
20
883.17
30
6.06452
11
404.94
21
678.247
31
10.3154
12
397.505
22
677.774
32
7.43747
13
397.505
23
677.774
33
7.43747
0
3DFACE
8
4
10
456.789
20
883.17
30
6.06452
11
404.94
21
678.247
31
10.3154
12
460.384
22
883.402
32
7.52334
13
460.384
23
883.402
33
7.52334
0
3DFACE
8
4
10
460.384
20
883.402
30
7.52334
11
412.458
21
678.721
31
12.7503
12
404.94
22
678.247
32
10.3154
13
404.94
23
678.247
33
10.3154
0
3DFACE
8
4
10
460.384
20
883.402
30
7.52334
11
412.458
21
678.721
31
12.7503
12
464.031
22
883.635
32
8.7832
13
464.031
23
883.635
33
8.7832
0
3DFACE
8
4
10
464.031
20
883.635
30
8.7832
11
420.045
21
679.194
31
14.8173
12
412.458
22
678.721
32
12.7503
13
412.458
23
678.721
33
12.7503
0
3DFACE
8
4
10
464.031
20
883.635
30
8.7832
11
420.045
21
679.194
31
14.8173
12
467.72
22
883.867
32
9.88305
13
467.72
23
883.867
33
9.88305
0
3DFACE
8
4
10
467.72
20
883.867
30
9.88305
11
427.688
21
679.668
31
16.5817
12
420.045
22
679.194
32
14.8173
13
420.045
23
679.194
33
14.8173
0
3DFACE
8
4
10
467.72
20
883.867
30
9.88305
11
427.688
21
679.668
31
16.5817
12
471.441
22
884.1
32
10.8557
13
471.441
23
884.1
33
10.8557
0
3DFACE
8
4
10
471.441
20
884.1
30
10.8557
11
435.377
21
680.141
31
18.1
12
427.688
22
679.668
32
16.5817
13
427.688
23
679.668
33
16.5817
0
3DFACE
8
4
10
471.441
20
884.1
30
10.8557
11
435.377
21
680.141
31
18.1
12
475.188
22
884.332
32
11.7282
13
475.188
23
884.332
33
11.7282
0
3DFACE
8
4
10
475.188
20
884.332
30
11.7282
11
443.104
21
680.615
31
19.4202
12
435.377
22
680.141
32
18.1
13
435.377
23
680.141
33
18.1
0
3DFACE
8
4
10
475.188
20
884.332
30
11.7282
11
443.104
21
680.615
31
19.4202
12
478.956
22
884.564
32
12.5229
13
478.956
23
884.564
33
12.5229
0
3DFACE
8
4
10
478.956
20
884.564
30
12.5229
11
450.86
21
681.088
31
20.5824
12
443.104
22
680.615
32
19.4202
13
443.104
23
680.615
33
19.4202
0
3DFACE
8
4
10
478.956
20
884.564
30
12.5229
11
450.86
21
681.088
31
20.5824
12
482.739
22
884.797
32
13.2574
13
482.739
23
884.797
33
13.2574
0
3DFACE
8
4
10
482.739
20
884.797
30
13.2574
11
458.64
21
681.561
31
21.62
12
450.86
22
681.088
32
20.5824
13
450.86
23
681.088
33
20.5824
0
3DFACE
8
4
10
482.739
20
884.797
30
13.2574
11
458.64
21
681.561
31
21.62
12
486.534
22
885.029
32
13.9457
13
486.534
23
885.029
33
13.9457
0
3DFACE
8
4
10
486.534
20
885.029
30
13.9457
11
466.438
21
682.035
31
22.5595
12
458.64
22
681.561
32
21.62
13
458.64
23
681.561
33
21.62
0
3DFACE
8
4
10
486.534
20
885.029
30
13.9457
11
466.438
21
682.035
31
22.5595
12
490.339
22
885.262
32
14.5981
13
490.339
23
885.262
33
14.5981
0
3DFACE
8
4
10
490.339
20
885.262
30
14.5981
11
474.251
21
682.508
31
23.4221
12
466.438
22
682.035
32
22.5595
13
466.438
23
682.035
33
22.5595
0
3DFACE
8
4
10
490.339
20
885.262
30
14.5981
11
474.251
21
682.508
31
23.4221
12
494.151
22
885.494
32
15.2222
13
494.151
23
885.494
33
15.2222
0
3DFACE
8
4
10
494.151
20
885.494
30
15.2222
11
482.075
21
682.982
31
24.2237
12
474.251
22
682.508
32
23.4221
13
474.251
23
682.508
33
23.4221
0
3DFACE
8
4
10
494.151
20
885.494
30
15.2222
11
482.075
21
682.982
31
24.2237
12
497.969
22
885.726
32
15.8232
13
497.969
23
885.726
33
15.8232
0
3DFACE
8
4
10
497.969
20
885.726
30
15.8232
11
489.91
21
683.455
31
24.9757
12
482.075
22
682.982
32
24.2237
13
482.075
23
682.982
33
24.2237
0
3DFACE
8
4
10
497.969
20
885.726
30
15.8232
11
489.91
21
683.455
31
24.9757
12
501.792
22
885.959
32
16.4044
13
501.792
23
885.959
33
16.4044
0
3DFACE
8
4
10
501.792
20
885.959
30
16.4044
11
497.752
21
683.929
31
25.6859
12
489.91
22
683.455
32
24.9757
13
489.91
23
683.455
33
24.9757
0
3DFACE
8
4
10
501.792
20
885.959
30
16.4044
11
497.752
21
683.929
31
25.6859
12
505.62
22
886.191
32
16.9673
13
505.62
23
886.191
33
16.9673
0
3DFACE
8
4
10
505.62
20
886.191
30
16.9673
11
505.602
21
684.402
31
26.3588
12
497.752
22
683.929
32
25.6859
13
497.752
23
683.929
33
25.6859
0
3DFACE
8
4
10
505.62
20
886.191
30
16.9673
11
505.602
21
684.402
31
26.3588
12
509.453
22
886.423
32
17.5127
13
509.453
23
886.423
33
17.5127
0
3DFACE
8
4
10
509.453
20
886.423
30
17.5127
11
513.458
21
684.875
31
26.9967
12
505.602
22
684.402
32
26.3588
13
505.602
23
684.402
33
26.3588
0
3DFACE
8
4
10
509.453
20
886.423
30
17.5127
11
513.458
21
684.875
31
26.9967
12
513.29
22
886.656
32
18.0401
13
513.29
23
886.656
33
18.0401
0
3DFACE
8
4
10
513.29
20
886.656
30
18.0401
11
521.321
21
685.349
31
27.5996
12
513.458
22
684.875
32
26.9967
13
513.458
23
684.875
33
26.9967
0
3DFACE
8
4
10
513.29
20
886.656
30
18.0401
11
521.321
21
685.349
31
27.5996
12
517.132
22
886.888
32
18.5488
13
517.132
23
886.888
33
18.5488
0
3DFACE
8
4
10
517.132
20
886.888
30
18.5488
11
529.192
21
685.822
31
28.1664
12
521.321
22
685.349
32
27.5996
13
521.321
23
685.349
33
27.5996
0
3DFACE
8
4
10
517.132
20
886.888
30
18.5488
11
529.192
21
685.822
31
28.1664
12
520.98
22
887.121
32
19.0377
13
520.98
23
887.121
33
19.0377
0
3DFACE
8
4
10
520.98
20
887.121
30
19.0377
11
537.07
21
686.296
31
28.6954
12
529.192
22
685.822
32
28.1664
13
529.192
23
685.822
33
28.1664
0
3DFACE
8
4
10
529.025
20
786.708
30
23.8666
11
537.07
21
686.296
31
28.6954
12
534.671
22
719.791
32
27.8971
13
534.671
23
719.791
33
27.8971
0
3DFACE
8
4
10
529.025
20
786.708
30
23.8666
11
534.671
21
719.791
31
27.8971
12
532.151
22
753.277
32
26.7807
13
532.151
23
753.277
33
26.7807
0
3DFACE
8
4
10
529.025
20
786.708
30
23.8666
11
532.151
21
753.277
31
26.7807
12
529.515
22
786.753
32
25.3412
13
529.515
23
786.753
33
25.3412
0
3DFACE
8
4
10
529.025
20
786.708
30
23.8666
11
529.515
21
786.753
31
25.3412
12
526.771
22
820.218
32
23.574
13
526.771
23
820.218
33
23.574
0
3DFACE
8
4
10
529.025
20
786.708
30
23.8666
11
526.771
21
820.218
31
23.574
12
523.924
22
853.675
32
21.4744
13
523.924
23
853.675
33
21.4744
0
3DFACE
8
4
10
529.025
20
786.708
30
23.8666
11
523.924
21
853.675
31
21.4744
12
520.98
22
887.121
32
19.0377
13
520.98
23
887.121
33
19.0377
0
3DFACE
8
5
10
474.751
20
973.387
30
2.63528e-10
11
446.439
21
882.473
31
5.27056e-10
12
455.844
22
912.776
32
6.34624e-10
13
455.844
23
912.776
33
6.34624e-10
0
3DFACE
8
5
10
474.751
20
973.387
30
2.63528e-10
11
455.844
21
912.776
31
6.34624e-10
12
465.262
22
943.079
32
7.44634e-10
13
465.262
23
943.079
33
7.44634e-10
0
3DFACE
8
5
10
474.751
20
973.387
30
2.63528e-10
11
465.262
21
943.079
31
7.44634e-10
12
474.693
22
973.384
32
8.5324e-10
13
474.693
23
973.384
33
8.5324e-10
0
3DFACE
8
5
10
474.751
20
973.387
30
2.63528e-10
11
474.693
21
973.384
31
8.5324e-10
12
484.137
22
1003.69
32
9.56672e-10
13
484.137
23
1003.69
33
9.56672e-10
0
3DFACE
8
5
10
474.751
20
973.387
30
2.63528e-10
11
484.137
21
1003.69
31
9.56672e-10
12
493.594
22
1033.99
32
1.05075e-09
13
493.594
23
1033.99
33
1.05075e-09
0
3DFACE
8
5
10
474.751
20
973.387
30
2.63528e-10
11
493.594
21
1033.99
31
1.05075e-09
12
503.064
22
1064.3
32
0
13
503.064
23
1064.3
33
0
0
3DFACE
8
5
10
503.064
20
1064.3
30
0
11
446.439
21
882.473
31
5.27056e-10
12
503.11
22
1064.31
32
0.0152135
13
503.11
23
1064.31
33
0.0152135
0
3DFACE
8
5
10
503.11
20
1064.31
30
0.0152135
11
449.801
21
882.705
31
2.3599
12
446.439
22
882.473
32
5.27056e-10
13
446.439
23
882.473
33
5.27056e-10
0
3DFACE
8
5
10
503.11
20
1064.31
30
0.0152135
11
449.801
21
882.705
31
2.3599
12
503.157
22
1064.32
32
0.0304273
13
503.157
23
1064.32
33
0.0304273
0
3DFACE
8
5
10
503.157
20
1064.32
30
0.0304273
11
453.257
21
882.938
31
4.36106
12
449.801
22
882.705
32
2.3599
13
449.801
23
882.705
33
2.3599
0
3DFACE
8
5
10
503.157
20
1064.32
30
0.0304273
11
453.257
21
882.938
31
4.36106
12
503.204
22
1064.33
32
0.0456414
13
503.204
23
1064.33
33
0.0456414
0
3DFACE
8
5
10
503.204
20
1064.33
30
0.0456414
11
456.789
21
883.17
31
6.06452
12
453.257
22
882.938
32
4.36106
13
453.257
23
882.938
33
4.36106
0
3DFACE
8
5
10
503.204
20
1064.33
30
0.0456414
11
456.789
21
883.17
31
6.06452
12
503.251
22
1064.34
32
0.0608558
13
503.251
23
1064.34
33
0.0608558
0
3DFACE
8
5
10
503.251
20
1064.34
30
0.0608558
11
460.384
21
883.402
31
7.52334
12
456.789
22
883.17
32
6.06452
13
456.789
23
883.17
33
6.06452
0
3DFACE
8
5
10
503.251
20
1064.34
30
0.0608558
11
460.384
21
883.402
31
7.52334
12
503.298
22
1064.34
32
0.0760704
13
503.298
23
1064.34
33
0.0760704
0
3DFACE
8
5
10
503.298
20
1064.34
30
0.0760704
11
464.031
21
883.635
31
8.7832
12
460.384
22
883.402
32
7.52334
13
460.384
23
883.402
33
7.52334
0
3DFACE
8
5
10
503.298
20
1064.34
30
0.0760704
11
464.031
21
883.635
31
8.7832
12
503.345
22
1064.35
32
0.0912853
13
503.345
23
1064.35
33
0.0912853
0
3DFACE
8
5
10
503.345
20
1064.35
30
0.0912853
11
467.72
21
883.867
31
9.88305
12
464.031
22
883.635
32
8.7832
13
464.031
23
883.635
33
8.7832
0
3DFACE
8
5
10
503.345
20
1064.35
30
0.0912853
11
467.72
21
883.867
31
9.88305
12
503.391
22
1064.36
32
0.1065
13
503.391
23
1064.36
33
0.1065
0
3DFACE
8
5
10
503.391
20
1064.36
30
0.1065
11
471.441
21
884.1
31
10.8557
12
467.72
22
883.867
32
9.88305
13
467.72
23
883.867
33
9.88305
0
3DFACE
8
5
10
503.391
20
1064.36
30
0.1065
11
471.441
21
884.1
31
10.8557
12
503.438
22
1064.37
32
0.121716
13
503.438
23
1064.37
33
0.121716
0
3DFACE
8
5
10
503.438
20
1064.37
30
0.121716
11
475.188
21
884.332
31
11.7282
12
471.441
22
884.1
32
10.8557
13
471.441
23
884.1
33
10.8557
0
3DFACE
8
5
10
503.438
20
1064.37
30
0.121716
11
475.188
21
884.332
31
11.7282
12
503.485
22
1064.38
32
0.136932
13
503.485
23
1064.38
33
0.136932
0
3DFACE
8
5
10
503.485
20
1064.38
30
0.136932
11
478.956
21
884.564
31
12.5229
12
475.188
22
884.332
32
11.7282
13
475.188
23
884.332
33
11.7282
0
3DFACE
8
5
10
503.485
20
1064.38
30
0.136932
11
478.956
21
884.564
31
12.5229
12
503.532
22
1064.39
32
0.152148
13
503.532
23
1064.39
33
0.152148
0
3DFACE
8
5
10
503.532
20
1064.39
30
0.152148
11
482.739
21
884.797
31
13.2574
12
478.956
22
884.564
32
12.5229
13
478.956
23
884.564
33
12.5229
0
3DFACE
8
5
10
503.532
20
1064.39
30
0.152148
11
482.739
21
884.797
31
13.2574
12
503.579
22
1064.4
32
0.167364
13
503.579
23
1064.4
33
0.167364
0
3DFACE
8
5
10
503.579
20
1064.4
30
0.167364
11
486.534
21
885.029
31
13.9457
12
482.739
22
884.797
32
13.2574
13
482.739
23
884.797
33
13.2574
0
3DFACE
8
5
10
503.579
20
1064.4
30
0.167364
11
486.534
21
885.029
31
13.9457
12
503.626
22
1064.41
32
0.18258
13
503.626
23
1064.41
33
0.18258
0
3DFACE
8
5
10
503.626
20
1064.41
30
0.18258
11
490.339
21
885.262
31
14.5981
12
486.534
22
885.029
32
13.9457
13
486.534
23
885.029
33
13.9457
0
3DFACE
8
5
10
503.626
20
1064.41
30
0.18258
11
490.339
21
885.262
31
14.5981
12
503.672
22
1064.41
32
0.197797
13
503.672
23
1064.41
33
0.197797
0
3DFACE
8
5
10
503.672
20
1064.41
30
0.197797
11
494.151
21
885.494
31
15.2222
12
490.339
22
885.262
32
14.5981
13
490.339
23
885.262
33
14.5981
0
3DFACE
8
5
10
503.672
20
1064.41
30
0.197797
11
494.151
21
885.494
31
15.2222
12
503.719
22
1064.42
32
0.213014
13
503.719
23
1064.42
33
0.213014
0
3DFACE
8
5
10
503.719
20
1064.42
30
0.213014
11
497.969
21
885.726
31
15.8232
12
494.151
22
885.494
32
15.2222
13
494.151
23
885.494
33
15.2222
0
3DFACE
8
5
10
503.719
20
1064.42
30
0.213014
11
497.969
21
885.726
31
15.8232
12
503.766
22
1064.43
32
0.228232
13
503.766
23
1064.43
33
0.228232
0
3DFACE
8
5
10
503.766
20
1064.43
30
0.228232
11
501.792
21
885.959
31
16.4044
12
497.969
22
885.726
32
15.8232
13
497.969
23
885.726
33
15.8232
0
3DFACE
8
5
10
503.766
20
1064.43
30
0.228232
11
501.792
21
885.959
31
16.4044
12
503.813
22
1064.44
32
0.243449
13
503.813
23
1064.44
33
0.243449
0
3DFACE
8
5
10
503.813
20
1064.44
30
0.243449
11
505.62
21
886.191
31
16.9673
12
501.792
22
885.959
32
16.4044
13
501.792
23
885.959
33
16.4044
0
3DFACE
8
5
10
503.813
20
1064.44
30
0.243449
11
505.62
21
886.191
31
16.9673
12
503.86
22
1064.45
32
0.258667
13
503.86
23
1064.45
33
0.258667
0
3DFACE
8
5
10
503.86
20
1064.45
30
0.258667
11
509.453
21
886.423
31
17.5127
12
505.62
22
886.191
32
16.9673
13
505.62
23
886.191
33
16.9673
0
3DFACE
8
5
10
503.86
20
1064.45
30
0.258667
11
509.453
21
886.423
31
17.5127
12
503.907
22
1064.46
32
0.273885
13
503.907
23
1064.46
33
0.273885
0
3DFACE
8
5
10
503.907
20
1064.46
30
0.273885
11
513.29
21
886.656
31
18.0401
12
509.453
22
886.423
32
17.5127
13
509.453
23
886.423
33
17.5127
0
3DFACE
8
5
10
503.907
20
1064.46
30
0.273885
11
513.29
21
886.656
31
18.0401
12
503.953
22
1064.47
32
0.289104
13
503.953
23
1064.47
33
0.289104
0
3DFACE
8
5
10
503.953
20
1064.47
30
0.289104
11
517.132
21
886.888
31
18.5488
12
513.29
22
886.656
32
18.0401
13
513.29
23
886.656
33
18.0401
0
3DFACE
8
5
10
503.953
20
1064.47
30
0.289104
11
517.132
21
886.888
31
18.5488
12
504
22
1064.47
32
0.304322
13
504
23
1064.47
33
0.304322
0
3DFACE
8
5
10
504
20
1064.47
30
0.304322
11
520.98
21
887.121
31
19.0377
12
517.132
22
886.888
32
18.5488
13
517.132
23
886.888
33
18.5488
0
3DFACE
8
5
10
512.49
20
975.798
30
9.67103
11
520.98
21
887.121
31
19.0377
12
518.3
22
916.699
32
16.5978
13
518.3
23
916.699
33
16.5978
0
3DFACE
8
5
10
512.49
20
975.798
30
9.67103
11
518.3
21
916.699
31
16.5978
12
515.555
22
946.27
32
13.8877
13
515.555
23
946.27
33
13.8877
0
3DFACE
8
5
10
512.49
20
975.798
30
9.67103
11
515.555
21
946.27
31
13.8877
12
512.747
22
975.833
32
10.9045
13
512.747
23
975.833
33
10.9045
0
3DFACE
8
5
10
512.49
20
975.798
30
9.67103
11
512.747
21
975.833
31
10.9045
12
509.883
22
1005.39
32
7.64521
13
509.883
23
1005.39
33
7.64521
0
3DFACE
8
5
10
512.49
20
975.798
30
9.67103
11
509.883
21
1005.39
31
7.64521
12
506.967
22
1034.94
32
4.10714
13
506.967
23
1034.94
33
4.10714
0
3DFACE
8
5
10
512.49
20
975.798
30
9.67103
11
506.967
21
1034.94
31
4.10714
12
504
22
1064.47
32
0.304322
13
504
23
1064.47
33
0.304322
0
ENDSEC
0
EOF
