<?xml version="1.0" encoding="ISO-8859-1" standalone="yes"?>
<svg width="33.76" height="33.75">
  <defs> 
    <marker id="ArrowEnd" viewBox="0 0 10 10" refX="0" refY="5" 
     markerUnits="strokeWidth" 
     markerWidth="4" 
     markerHeight="3" 
     orient="auto"> 
        <path d="M 0 0 L 10 5 L 0 10 z" /> 
    </marker>
    <marker id="ArrowStart" viewBox="0 0 10 10" refX="10" refY="5" 
     markerUnits="strokeWidth" 
     markerWidth="4" 
     markerHeight="3" 
     orient="auto"> 
        <path d="M 10 0 L 0 5 L 10 10 z" /> 
    </marker> </defs>
<g>
<g>
<g>
<defs><linearGradient id="1" x1="7.60446" y1="-0.0266264" x2="33.7255" y2="33.7766" gradientUnits="userSpaceOnUse">
<stop offset="0" style="stop-color:#ffffff"/>
<stop offset="0.0082089" style="stop-color:#ffffff"/>
<stop offset="0.991784" style="stop-color:#d3e0ed"/>
<stop offset="1" style="stop-color:#d3e0ed"/>
</linearGradient>
</defs><path style="stroke:#003399; stroke-width:0.5; stroke-linejoin:bevel; fill:url(#1)" d="M 7.81999 0.25L 7.81999 33.5L 33.51 33.5L 33.51 6.29004L 27.46 0.25L 7.81999 0.25z"/>
<defs><linearGradient id="2" x1="26.7124" y1="0.740627" x2="34.2576" y2="5.80942" gradientUnits="userSpaceOnUse">
<stop offset="0" style="stop-color:#ffffff"/>
<stop offset="0.15964" style="stop-color:#ffffff"/>
<stop offset="0.960824" style="stop-color:#499bd1"/>
<stop offset="1" style="stop-color:#499bd1"/>
</linearGradient>
</defs><path style="stroke:#003399; stroke-width:0.5; stroke-linejoin:bevel; fill:url(#2)" d="M 27.46 0.25L 27.46 6.30005L 33.51 6.29004L 27.46 0.25z"/>
</g>
<g>
<defs><linearGradient id="3" x1="8.75753" y1="12.3332" x2="16.7424" y2="4.46683" gradientUnits="userSpaceOnUse">
<stop offset="0" style="stop-color:#ebebeb"/>
<stop offset="0.376801" style="stop-color:#ffffff"/>
<stop offset="1" style="stop-color:#ffffff"/>
</linearGradient>
</defs><path style="stroke:#000066; stroke-width:0.22; stroke-linejoin:round; fill:url(#3)" d="M 15.1 3.61005L 15.68 8.23004C 15.05 11.3701 12.51 12.36 9.81999 13.19L 14.46 4.24005L 15.1 3.61005z"/>
<defs><linearGradient id="4" x1="6.111" y1="19.5379" x2="16.3689" y2="9.43221" gradientUnits="userSpaceOnUse">
<stop offset="0" style="stop-color:#cdcdcd"/>
<stop offset="0.761233" style="stop-color:#ffffff"/>
<stop offset="1" style="stop-color:#ffffff"/>
</linearGradient>
</defs><path style="stroke:#000066; stroke-width:0.22; stroke-linejoin:round; fill:url(#4)" d="M 15.73 9.33002L 16.05 13.42C 14.84 18.1 10.67 18.92 6.42998 19.64L 9.84001 14.2C 12.7 13.46 15.16 12.31 15.73 9.33002z"/>
<defs><linearGradient id="5" x1="3.5037" y1="25.9404" x2="15.8663" y2="13.7597" gradientUnits="userSpaceOnUse">
<stop offset="0" style="stop-color:#b1b1b1"/>
<stop offset="0.990291" style="stop-color:#ffffff"/>
<stop offset="1" style="stop-color:#ffffff"/>
</linearGradient>
</defs><path style="stroke:#000066; stroke-width:0.22; stroke-linejoin:round; fill:url(#5)" d="M 16.18 14.32L 16.2 18.5C 13.44 23.88 8.23997 24.5 3.17 25.38L 6.52 20.45C 11.59 19.75 15.36 18.11 16.18 14.32z"/>
<defs><linearGradient id="6" x1="1.23013" y1="31.7485" x2="15.0099" y2="18.1716" gradientUnits="userSpaceOnUse">
<stop offset="0" style="stop-color:#999999"/>
<stop offset="0.0080415" style="stop-color:#999999"/>
<stop offset="1" style="stop-color:#efefef"/>
</linearGradient>
</defs><path style="stroke:#000066; stroke-width:0.22; stroke-linejoin:round; fill:url(#6)" d="M 16.13 19.53L 15.6 23.85C 12.88 28.34 6.75999 29.61 0.110001 30.39L 3.04997 26.29C 9.80998 25.41 14.62 23.42 16.13 19.53z"/>
</g>
<g>
<defs><linearGradient id="7" x1="20.8975" y1="9.20098" x2="14.5025" y2="16.7491" gradientUnits="userSpaceOnUse">
<stop offset="0" style="stop-color:#ffffff"/>
<stop offset="0.489888" style="stop-color:#ffffff"/>
<stop offset="1" style="stop-color:#d8d8d8"/>
</linearGradient>
</defs><path style="stroke:#000066; stroke-width:0.22; fill:url(#7)" d="M 16.7 9.63L 18.89 12.23C 18.84 14.6 17.56 15.34 16.52 16.32C 16.69 14.33 16.71 12.25 16.51 10.05L 16.7 9.63z"/>
<defs><linearGradient id="8" x1="22.9758" y1="11.9459" x2="14.6942" y2="21.7241" gradientUnits="userSpaceOnUse">
<stop offset="0" style="stop-color:#ffffff"/>
<stop offset="0.315944" style="stop-color:#ffffff"/>
<stop offset="1" style="stop-color:#bbbbbb"/>
</linearGradient>
</defs><path style="stroke:#000066; stroke-width:0.22; fill:url(#8)" d="M 19.44 12.69L 21.34 15.02C 21.28 18.3 18.75 19.59 16.33 20.98C 16.58 19.66 16.83 18.25 17.08 16.78C 18.3 15.73 19.49 14.66 19.44 12.69z"/>
<defs><linearGradient id="9" x1="24.8802" y1="14.3723" x2="14.6598" y2="26.4378" gradientUnits="userSpaceOnUse">
<stop offset="0" style="stop-color:#ffffff"/>
<stop offset="0.2181" style="stop-color:#ffffff"/>
<stop offset="1" style="stop-color:#9f9f9f"/>
</linearGradient>
</defs><path style="stroke:#000066; stroke-width:0.22; fill:url(#9)" d="M 21.89 15.57L 23.78 17.96C 23.16 22.26 19.26 23.57 15.76 25.2401C 16.25 24.01 16.64 22.78 16.89 21.53C 19.57 20.15 21.9 18.56 21.89 15.57z"/>
<defs><linearGradient id="10" x1="26.0373" y1="16.8139" x2="14.8727" y2="29.9961" gradientUnits="userSpaceOnUse">
<stop offset="0" style="stop-color:#ffffff"/>
<stop offset="0.137453" style="stop-color:#ffffff"/>
<stop offset="0.90577" style="stop-color:#999999"/>
<stop offset="1" style="stop-color:#999999"/>
</linearGradient>
</defs><path style="stroke:#000066; stroke-width:0.22; fill:url(#10)" d="M 24.25 18.59L 25.62 20.38C 24.27 24.95 20.02 26.81 15.29 28.22L 16.22 25.8701C 21.12 23.81 24.17 21.44 24.25 18.59z"/>
</g>
</g>
</g>
</svg>